<svg width="283" height="27" viewBox="0 0 283 27" fill="none" xmlns="http://www.w3.org/2000/svg">
<g clip-path="url(#clip0_1_568)">
<path fill-rule="evenodd" clip-rule="evenodd" d="M110.59 13.5427C110.59 9.36972 107.775 5.79284 102.567 5.79284C97.3601 5.79284 94.5452 9.51875 94.5452 13.5427V13.9898C94.5452 18.1629 97.3601 21.8888 102.567 21.8888C107.775 21.8888 110.59 18.1629 110.59 13.9898V13.5427ZM102.569 25.3167C95.3914 25.3167 90.7471 19.8024 90.7471 14.139V13.5428C90.7471 7.73042 95.3914 2.36511 102.569 2.36511C109.747 2.36511 114.391 7.73042 114.391 13.5428V14.288C114.391 19.9514 109.747 25.3167 102.569 25.3167Z" fill="#7A290F"/>
<path fill-rule="evenodd" clip-rule="evenodd" d="M12.6347 7.28312L8.27181 16.2253H17.2792L12.6347 7.28312ZM21.5017 24.5711L18.8277 19.355H6.86477L4.33146 24.5711H0.25L11.2277 3.10999H14.324L25.4425 24.4222H21.5017V24.5711Z" fill="#7A290F"/>
<path fill-rule="evenodd" clip-rule="evenodd" d="M42.8443 25.4018C35.5258 25.4018 32.148 21.2288 32.148 15.7145V3.19543H35.9479V15.7145C35.9479 19.5895 38.4812 21.9741 43.1258 21.9741C47.9109 21.9741 49.8813 19.5895 49.8813 15.7145V3.19543H53.6812V15.7145C53.6812 20.9307 50.4443 25.4018 42.8443 25.4018Z" fill="#7A290F"/>
<path fill-rule="evenodd" clip-rule="evenodd" d="M74.7933 6.47422V24.5076H70.9934V6.47422H62.1267V3.19543H83.6599V6.47422H74.7933Z" fill="#7A290F"/>
<path fill-rule="evenodd" clip-rule="evenodd" d="M148.264 24.5076V7.66653L147.278 9.45495L138.834 24.5076H137.004L128.56 9.45495L127.575 7.66653V24.5076H123.916V3.19543H129.123L137.145 17.801L137.99 19.5895L138.975 17.801L146.856 3.19543H152.064V24.5076H148.264Z" fill="#7A290F"/>
<path fill-rule="evenodd" clip-rule="evenodd" d="M172.186 7.36856L167.823 16.3107H176.83L172.186 7.36856ZM180.91 24.5076L178.237 19.2914H166.274L163.74 24.5076H159.659L170.637 3.19543H173.734L184.851 24.5076H180.91Z" fill="#7A290F"/>
<path fill-rule="evenodd" clip-rule="evenodd" d="M200.339 6.47422V24.5076H196.538V6.47422H187.671V3.19543H209.205V6.47422H200.339Z" fill="#7A290F"/>
<path fill-rule="evenodd" clip-rule="evenodd" d="M228.201 6.47422V24.5076H224.402V6.47422H215.535V3.19543H237.068V6.47422H228.201Z" fill="#7A290F"/>
<path fill-rule="evenodd" clip-rule="evenodd" d="M246.5 24.5074V5.13278C248.048 5.13278 248.611 4.23857 248.611 3.04626H250.159V24.3585H246.5" fill="#7A290F"/>
<path fill-rule="evenodd" clip-rule="evenodd" d="M279.996 9.1567C278.167 7.36827 275.492 5.72888 271.833 5.72888C266.486 5.72888 263.389 9.60381 263.389 13.7768V14.2239C263.389 18.2479 266.486 21.9738 272.115 21.9738C275.492 21.9738 278.307 20.3345 279.996 18.546L282.248 21.0795C279.996 23.3152 276.197 25.4017 271.833 25.4017C264.233 25.4017 259.448 20.1853 259.448 14.373V13.6278C259.448 7.81538 264.515 2.45007 271.973 2.45007C276.197 2.45007 280.138 4.38754 282.248 6.77213L279.996 9.1567Z" fill="#7A290F"/>
<path fill-rule="evenodd" clip-rule="evenodd" d="M105.055 9.75299C105.759 10.2001 105.899 11.2434 105.477 11.8395L101.959 17.5029C101.536 18.2481 100.551 18.3971 99.8475 17.95C99.1439 17.5029 99.0031 16.4596 99.4254 15.8635L102.944 10.2001C103.507 9.60396 104.351 9.30589 105.055 9.75299Z" fill="#7A290F"/>
</g>
<defs>
<clipPath id="clip0_1_568">
<rect width="282" height="26" fill="white" transform="translate(0.25 0.5)"/>
</clipPath>
</defs>
</svg>
