<svg width="64" height="65" viewBox="0 0 64 65" fill="none" xmlns="http://www.w3.org/2000/svg">
<g clip-path="url(#clip0_1_532)">
<path d="M26.1361 50.4325H17.6002C17.3963 50.4325 17.2275 50.2637 17.2275 50.0598V41.1302C17.2275 40.0966 18.0643 39.2528 19.1049 39.2528H26.0729C26.0939 50.6716 26.0096 50.102 26.1361 50.4325ZM37.1752 31.1177V50.0598C37.1752 50.2637 37.0064 50.4325 36.8025 50.4325H27.1979C26.9939 50.4325 26.8252 50.2637 26.8252 50.0598V31.1177C26.8252 30.0841 27.6619 29.2403 28.7025 29.2403H35.3049C36.3385 29.2403 37.1752 30.0841 37.1752 31.1177ZM46.7729 36.9887V50.0598C46.7729 50.2637 46.6041 50.4325 46.4002 50.4325H37.8572C37.9838 50.102 37.8994 50.8614 37.9275 35.1114H44.9025C45.9291 35.1114 46.7729 35.9552 46.7729 36.9887ZM35.558 21.1684C35.4666 21.2528 35.4244 21.3794 35.4525 21.4989L35.8393 23.7559C35.9166 24.1848 35.7408 24.6067 35.3963 24.8598C35.0236 25.127 34.5596 25.1341 34.208 24.9442L32.176 23.8825C32.0705 23.8262 31.9369 23.8262 31.8244 23.8825L29.7924 24.9442C29.4127 25.1481 28.9627 25.113 28.6041 24.8598C28.2525 24.6067 28.0838 24.1848 28.1611 23.7559L28.5479 21.4989C28.5689 21.3794 28.5268 21.2528 28.4424 21.1684L26.8041 19.5653C26.4947 19.263 26.3893 18.82 26.5158 18.4122C26.6494 17.9973 27.001 17.7091 27.4229 17.6458L29.6939 17.3223C29.8205 17.3012 29.926 17.2239 29.9752 17.1184L30.9947 15.0653C31.1846 14.6716 31.5713 14.4325 32.0002 14.4325C32.4291 14.4325 32.8158 14.6716 33.0057 15.0583L34.0182 17.1114C34.0744 17.2169 34.1799 17.3012 34.2994 17.3153L36.5705 17.6387C36.9994 17.702 37.3439 17.9973 37.4775 18.4052C37.6111 18.813 37.4986 19.2559 37.1893 19.5583L35.558 21.1684Z" fill="black"/>
</g>
<defs>
<clipPath id="clip0_1_532">
<rect width="36" height="36" fill="white" transform="translate(14 14.4325)"/>
</clipPath>
</defs>
</svg>
