<svg width="109" height="84" viewBox="0 0 109 84" fill="none" xmlns="http://www.w3.org/2000/svg">
<path d="M48.2686 37.539C49.8466 44.9834 54.8072 55.3705 65.0044 61.9757C74.8838 68.8772 86.6589 69.2303 93.657 65.9036C100.944 62.6743 103.454 55.7659 101.47 50.393C99.47 44.7734 94.8405 40.9553 90.4432 38.4964C85.8703 36.001 81.5298 34.8645 76.0462 33.7699C70.7079 32.7093 65.0692 31.0447 60.6062 28.7308C56.0779 26.5916 52.7253 23.8028 50.4534 24.5339C48.394 25.1336 46.6398 29.8651 48.2686 37.539Z" fill="#E7F0FE"/>
<path d="M59.4236 48.0228C58.3356 40.4939 54.0642 29.8136 44.3198 22.5753C34.9119 15.0612 23.1842 13.9619 15.9831 16.8375C8.50017 19.5978 5.54381 26.3326 7.17291 31.82C8.80115 37.555 13.1717 41.6587 17.3988 44.3915C21.7992 47.1716 26.0561 48.5811 31.457 50.0214C36.7149 51.4186 42.2331 53.4374 46.5358 56.0297C50.9149 58.4517 54.0782 61.4474 56.3933 60.8619C58.4874 60.3943 60.5471 55.7841 59.4236 48.0228Z" fill="#E7F0FE"/>
<path d="M61.7652 63.3895H47.68V70.5564H61.7652V63.3895Z" fill="#EE781D"/>
<g opacity="0.3">
<path d="M61.7652 68.0405L47.68 66.4966V63.3895H61.7652V68.0405Z" fill="#000141"/>
</g>
<path d="M81.9257 69.2986H27.1327C25.9788 69.2986 25.0432 70.2203 25.0432 71.3571H84.0155C84.0152 70.2201 83.0798 69.2986 81.9257 69.2986Z" fill="#C7DBFF"/>
<path d="M96.1908 15.801V61.607C96.1908 63.4743 94.6518 64.9905 92.7564 64.9905H19.097C17.4926 64.9905 16.1443 63.9027 15.7677 62.4344C15.6992 62.169 15.664 61.8923 15.664 61.607V15.801C15.664 13.932 17.203 12.4174 19.0967 12.4174H92.7561C94.6518 12.4174 96.1908 13.932 96.1908 15.801Z" fill="#EE781D"/>
<path d="M91.4499 14.3433H20.4046C18.8659 14.3433 17.6185 15.5722 17.6185 17.0881V60.319C17.6185 61.8349 18.8659 63.0638 20.4046 63.0638H91.4499C92.9886 63.0638 94.236 61.8349 94.236 60.319V17.0881C94.236 15.5722 92.9886 14.3433 91.4499 14.3433Z" fill="#E7F0FE"/>
<path d="M91.4499 14.3433H20.4046C18.8659 14.3433 17.6185 15.5722 17.6185 17.0881V60.319C17.6185 61.8349 18.8659 63.0638 20.4046 63.0638H91.4499C92.9886 63.0638 94.236 61.8349 94.236 60.319V17.0881C94.236 15.5722 92.9886 14.3433 91.4499 14.3433Z" fill="#E7F0FE"/>
<path d="M91.4498 15.9913H60.2344V61.4155H91.4498C92.0637 61.4155 92.5631 60.9235 92.5631 60.319V17.0881C92.5631 16.4833 92.0635 15.9913 91.4498 15.9913Z" fill="white"/>
<path d="M17.0921 71.5826H94.7629C94.9752 71.5826 95.1474 71.4129 95.1474 71.2037C95.1474 70.9946 94.9752 70.8249 94.7629 70.8249H17.0921C16.8798 70.8249 16.7076 70.9946 16.7076 71.2037C16.7076 71.4132 16.8795 71.5826 17.0921 71.5826Z" fill="#EE781D"/>
<path d="M67.1496 24.1371C66.0633 24.1371 65.1831 25.0043 65.1831 26.0744C65.1831 27.1446 66.0636 28.0118 67.1496 28.0118C68.2358 28.0118 69.116 27.1446 69.116 26.0744C69.116 25.0046 68.2358 24.1371 67.1496 24.1371ZM67.1496 27.6934C66.2418 27.6934 65.5045 26.969 65.5045 26.0747C65.5045 25.1804 66.2418 24.456 67.1496 24.456C68.0573 24.456 68.7926 25.1804 68.7926 26.0747C68.7926 26.969 68.0573 27.6934 67.1496 27.6934Z" fill="#EE781D"/>
<path d="M76.5748 24.5868H71.4005C71.2732 24.5868 71.1552 24.6725 71.1347 24.7962C71.1086 24.9539 71.2317 25.0902 71.3868 25.0902H76.5748C76.7161 25.0902 76.8303 24.9774 76.8303 24.8385C76.8303 24.6996 76.7158 24.5868 76.5748 24.5868Z" fill="#EE781D"/>
<path d="M86.4565 24.5868H77.4331C77.2919 24.5868 77.1776 24.6996 77.1776 24.8385C77.1776 24.9777 77.2922 25.0902 77.4331 25.0902H86.4702C86.6254 25.0902 86.7484 24.9539 86.7223 24.7962C86.7018 24.6725 86.5839 24.5868 86.4565 24.5868Z" fill="#EE781D"/>
<path d="M78.8053 25.8227H71.4008C71.2734 25.8227 71.1555 25.9084 71.135 26.0321C71.1089 26.1898 71.2319 26.3261 71.3871 26.3261H78.8056C78.9468 26.3261 79.0611 26.2133 79.0611 26.0744C79.0608 25.9355 78.9463 25.8227 78.8053 25.8227Z" fill="#EE781D"/>
<path d="M78.8053 27.0589H71.4008C71.2734 27.0589 71.1555 27.1446 71.135 27.2684C71.1089 27.426 71.2319 27.5626 71.3871 27.5626H78.8056C78.9468 27.5626 79.0611 27.4498 79.0611 27.3109C79.0608 27.1715 78.9463 27.0589 78.8053 27.0589Z" fill="#EE781D"/>
<path d="M86.4565 25.8227H79.6633C79.5224 25.8227 79.4078 25.9355 79.4078 26.0744C79.4078 26.2136 79.5224 26.3261 79.6633 26.3261H86.4699C86.6251 26.3261 86.7481 26.1898 86.722 26.0321C86.7018 25.9087 86.5839 25.8227 86.4565 25.8227Z" fill="#EE781D"/>
<path d="M67.1211 27.0413C67.0893 27.0413 67.0575 27.0382 67.0259 27.0318C66.902 27.0066 66.7937 26.9335 66.7252 26.8288L66.0292 25.7673C65.8879 25.552 65.9507 25.2644 66.1696 25.1252C66.3884 24.9855 66.68 25.048 66.8216 25.2633L67.2573 25.9283L69.5079 24.444C69.7242 24.3006 70.0169 24.358 70.1619 24.5717C70.3068 24.7845 70.2489 25.0729 70.0323 25.2157L67.3835 26.9626C67.3053 27.0144 67.2138 27.0413 67.1211 27.0413Z" fill="#EE781D"/>
<path d="M82.7928 32.6318C82.7928 33.7019 83.673 34.5691 84.7592 34.5691C85.8455 34.5691 86.7257 33.7019 86.7257 32.6318C86.7257 31.5616 85.8455 30.6944 84.7592 30.6944C83.673 30.6944 82.7928 31.5616 82.7928 32.6318ZM83.1162 32.6318C83.1162 31.7374 83.8515 31.0131 84.7592 31.0131C85.667 31.0131 86.4043 31.7374 86.4043 32.6318C86.4043 33.5261 85.667 34.2504 84.7592 34.2504C83.8515 34.2504 83.1162 33.5261 83.1162 32.6318Z" fill="#EE781D"/>
<path d="M75.334 31.1441H80.5083C80.6356 31.1441 80.7536 31.2298 80.774 31.3536C80.8002 31.5112 80.6771 31.6476 80.5219 31.6476H75.334C75.1927 31.6476 75.0785 31.5347 75.0785 31.3958C75.0785 31.2567 75.193 31.1441 75.334 31.1441Z" fill="#EE781D"/>
<path d="M65.4522 31.1441H74.4756C74.6169 31.1441 74.7311 31.257 74.7311 31.3958C74.7311 31.535 74.6166 31.6476 74.4756 31.6476H65.4386C65.2834 31.6476 65.1604 31.5112 65.1865 31.3536C65.207 31.2298 65.3249 31.1441 65.4522 31.1441Z" fill="#EE781D"/>
<path d="M73.1035 32.38H80.508C80.6353 32.38 80.7533 32.4657 80.7738 32.5895C80.7999 32.7471 80.6768 32.8835 80.5217 32.8835H73.1032C72.9619 32.8835 72.8477 32.7706 72.8477 32.6318C72.848 32.4929 72.9625 32.38 73.1035 32.38Z" fill="#EE781D"/>
<path d="M73.1035 33.616H80.508C80.6353 33.616 80.7533 33.7016 80.7738 33.8254C80.7999 33.983 80.6768 34.1197 80.5217 34.1197H73.1032C72.9619 34.1197 72.8477 34.0068 72.8477 33.868C72.848 33.7288 72.9625 33.616 73.1035 33.616Z" fill="#EE781D"/>
<path d="M65.4525 32.38H72.2454C72.3864 32.38 72.5009 32.4929 72.5009 32.6318C72.5009 32.7709 72.3864 32.8835 72.2454 32.8835H65.4386C65.2834 32.8835 65.1604 32.7471 65.1865 32.5895C65.207 32.4657 65.3252 32.38 65.4525 32.38Z" fill="#EE781D"/>
<path d="M84.9784 33.3704C84.9465 33.3704 84.9147 33.3673 84.8832 33.3609C84.7592 33.3357 84.651 33.2626 84.5825 33.1579L83.8864 32.0964C83.7452 31.8811 83.808 31.5935 84.0268 31.4544C84.2457 31.3146 84.5373 31.3771 84.6788 31.5924L85.1145 32.2574L87.3652 30.7731C87.5815 30.6298 87.8742 30.6872 88.0191 30.9008C88.1641 31.1136 88.1061 31.402 87.8895 31.5448L85.2407 33.2917C85.1625 33.3435 85.071 33.3704 84.9784 33.3704Z" fill="#EE781D"/>
<path d="M81.1046 56.4959C81.1046 56.4959 79.9086 59.5697 78.9028 61.343C80.6595 61.343 81.9922 61.343 81.9922 61.343V57.4199L81.1046 56.4959Z" fill="#FECECC"/>
<path d="M84.8462 52.0201C84.8462 52.0201 82.0263 53.9552 80.7999 56.469C80.7999 56.469 82.485 59.6924 83.4908 59.1735C84.9596 58.4156 84.8462 52.0201 84.8462 52.0201Z" fill="#EE781D"/>
<path d="M90.3417 61.343C90.2934 57.2701 89.0568 51.9462 85.744 51.8717C83.0955 51.8123 81.4149 57.0906 81.1043 61.343H90.3417Z" fill="#F9AE2B"/>
<path d="M83.5877 54.4726C83.5752 54.4726 83.563 54.4664 83.5559 54.455C83.5451 54.4376 83.5508 54.4152 83.5684 54.4046C83.7446 54.299 83.7 54.1257 83.698 54.1184C83.6926 54.0988 83.7045 54.0786 83.7241 54.0733C83.7438 54.068 83.7642 54.0795 83.7699 54.0988C83.7924 54.1789 83.7872 54.3592 83.6073 54.467C83.6011 54.4709 83.5943 54.4726 83.5877 54.4726Z" fill="#EE781D"/>
<path d="M84.4861 56.1697C84.4736 56.1697 84.4614 56.1635 84.4543 56.152C84.4435 56.1347 84.4492 56.112 84.4668 56.1016C84.643 55.9961 84.5984 55.8228 84.5964 55.8155C84.591 55.7959 84.6029 55.7757 84.6225 55.7704C84.6421 55.7651 84.6626 55.7766 84.6683 55.7959C84.6907 55.876 84.6856 56.056 84.5057 56.1641C84.4995 56.168 84.4929 56.1697 84.4861 56.1697Z" fill="#EE781D"/>
<path d="M86.3429 54.7341C86.3304 54.7341 86.3181 54.728 86.311 54.7165C86.3002 54.6991 86.3059 54.6764 86.3235 54.6661C86.4997 54.5605 86.4551 54.3872 86.4531 54.3799C86.4477 54.3603 86.4597 54.3402 86.4793 54.3348C86.4989 54.3295 86.5193 54.341 86.525 54.3603C86.5475 54.4404 86.5424 54.6204 86.3625 54.7285C86.3562 54.7324 86.3494 54.7341 86.3429 54.7341Z" fill="#EE781D"/>
<path d="M83.7537 57.1472C83.7537 57.1595 83.7474 57.1715 83.7358 57.1785C83.7182 57.1892 83.6951 57.1836 83.6846 57.1662C83.5775 56.9926 83.4016 57.0366 83.3942 57.0385C83.3743 57.0438 83.3538 57.0321 83.3484 57.0128C83.3427 56.9934 83.3547 56.9733 83.3743 56.9677C83.4556 56.9456 83.6383 56.9506 83.748 57.1278C83.752 57.134 83.7537 57.1407 83.7537 57.1472Z" fill="#EE781D"/>
<path d="M82.0294 58.7143C82.0169 58.7143 82.0047 58.7082 81.9976 58.6967C81.9868 58.6793 81.9925 58.6566 82.0101 58.6463C82.1863 58.5407 82.1417 58.3674 82.1397 58.3601C82.1343 58.3405 82.1462 58.3204 82.1658 58.315C82.1854 58.3097 82.2059 58.3212 82.2116 58.3405C82.234 58.4206 82.2289 58.6006 82.049 58.7087C82.0428 58.7126 82.0359 58.7143 82.0294 58.7143Z" fill="#EE781D"/>
<path d="M83.3643 55.2331C83.3632 55.2208 83.3683 55.2082 83.3791 55.2C83.3956 55.188 83.4189 55.1911 83.4311 55.2073C83.5545 55.37 83.7253 55.3098 83.7324 55.3073C83.7517 55.3003 83.773 55.3098 83.7804 55.3288C83.7878 55.3476 83.7781 55.3689 83.7588 55.3762C83.6798 55.4058 83.4976 55.4179 83.3711 55.2516C83.3674 55.246 83.3652 55.2395 83.3643 55.2331Z" fill="#EE781D"/>
<path d="M85.4883 53.9378C85.4871 53.9255 85.4922 53.9129 85.503 53.9048C85.5195 53.8927 85.5428 53.8961 85.5553 53.9123C85.6787 54.075 85.8495 54.0148 85.8566 54.0123C85.8759 54.0053 85.8972 54.0148 85.9046 54.0338C85.912 54.0526 85.9023 54.0739 85.883 54.0812C85.8043 54.1108 85.6218 54.1229 85.4954 53.9566C85.4914 53.9507 85.4891 53.9442 85.4883 53.9378Z" fill="#EE781D"/>
<path d="M84.1794 58.5917C84.1783 58.5794 84.1834 58.5668 84.1942 58.5586C84.2107 58.5466 84.234 58.55 84.2462 58.5662C84.3696 58.7289 84.5404 58.6687 84.5475 58.6662C84.5668 58.6592 84.5881 58.6687 84.5955 58.6877C84.6029 58.7065 84.5933 58.7278 84.5739 58.735C84.4949 58.7647 84.3125 58.7768 84.1863 58.6104C84.1826 58.6046 84.18 58.5981 84.1794 58.5917Z" fill="#EE781D"/>
<path d="M86.0013 55.909C86.0001 55.8967 86.0052 55.8841 86.016 55.876C86.0325 55.8639 86.0558 55.8673 86.0683 55.8832C86.1917 56.0459 86.3625 55.9857 86.3696 55.9832C86.3889 55.9762 86.4102 55.9857 86.4176 56.0048C86.425 56.0235 86.4153 56.0448 86.396 56.0521C86.317 56.0818 86.1348 56.0938 86.0084 55.9275C86.0041 55.9219 86.0018 55.9154 86.0013 55.909Z" fill="#EE781D"/>
<path d="M81.8788 57.3059C81.8776 57.2936 81.8827 57.281 81.8935 57.2729C81.91 57.2608 81.9333 57.2642 81.9455 57.2804C82.0689 57.4431 82.2397 57.3829 82.2468 57.3804C82.2661 57.3734 82.2874 57.3829 82.2948 57.402C82.3022 57.4207 82.2926 57.442 82.2732 57.4493C82.1942 57.479 82.0121 57.491 81.8856 57.3247C81.8819 57.3188 81.8793 57.3124 81.8788 57.3059Z" fill="#EE781D"/>
<path d="M85.1094 54.9195C85.0412 54.9195 84.9946 54.8797 84.9349 54.8285C84.9076 54.8052 84.8769 54.7789 84.8383 54.7509C84.7507 54.6879 84.7385 54.6988 84.6794 54.7512C84.647 54.78 84.6024 54.8192 84.5333 54.8542C84.4694 54.8864 84.4094 54.8918 84.3545 54.8702C84.2571 54.8316 84.217 54.7207 84.2156 54.7159C84.2087 54.6969 84.2192 54.6759 84.2386 54.6692C84.2579 54.6624 84.2792 54.6725 84.286 54.6916C84.2863 54.6924 84.317 54.7761 84.383 54.8022C84.4173 54.8156 84.4554 54.8114 84.4998 54.789C84.5603 54.7585 84.599 54.7243 84.6299 54.6969C84.7021 54.633 84.753 54.5986 84.8826 54.6918C84.9238 54.7215 84.9559 54.749 84.9841 54.773C85.0724 54.8486 85.0992 54.8716 85.2123 54.8139C85.2305 54.8047 85.2529 54.8117 85.2626 54.8296C85.272 54.8475 85.2649 54.8696 85.2467 54.8792C85.1904 54.9077 85.1466 54.9195 85.1094 54.9195Z" fill="#EE781D"/>
<path d="M85.7841 58.4564C85.7159 58.4564 85.6693 58.4167 85.6096 58.3654C85.5823 58.3422 85.5516 58.3159 85.513 58.2879C85.4254 58.2249 85.4132 58.2358 85.3541 58.2882C85.3217 58.317 85.2771 58.3562 85.208 58.3912C85.1441 58.4234 85.0841 58.4287 85.0292 58.4069C84.9318 58.3682 84.8917 58.2574 84.8903 58.2526C84.8834 58.2336 84.8937 58.2126 84.9133 58.2058C84.9326 58.1991 84.9539 58.2092 84.9607 58.2282C84.961 58.2291 84.9917 58.3128 85.0577 58.3388C85.0921 58.3523 85.1301 58.3481 85.1745 58.3257C85.235 58.2952 85.2737 58.261 85.3046 58.2336C85.3768 58.1697 85.4277 58.1353 85.5573 58.2285C85.5985 58.2582 85.6306 58.2856 85.6588 58.3097C85.7472 58.3853 85.7739 58.4083 85.887 58.3506C85.9052 58.3414 85.9276 58.3484 85.9373 58.3663C85.9467 58.3842 85.9396 58.4063 85.9214 58.4158C85.8651 58.4444 85.8213 58.4564 85.7841 58.4564Z" fill="#EE781D"/>
<path d="M82.4728 56.4959C82.4696 56.4959 82.4665 56.4956 82.4634 56.4948C82.3645 56.4696 82.3213 56.4091 82.3025 56.3629C82.2673 56.2761 82.2912 56.1747 82.3304 56.1126C82.3997 56.0028 82.4247 55.9121 82.3219 55.8264C82.2696 55.7827 82.2619 55.7376 82.2647 55.7074C82.2735 55.6133 82.3909 55.545 82.4043 55.5374C82.4222 55.5274 82.4449 55.5335 82.4552 55.5512C82.4654 55.5688 82.4591 55.5912 82.4412 55.6013C82.4162 55.6156 82.3435 55.6665 82.3389 55.7141C82.3383 55.7211 82.3364 55.7424 82.3699 55.7701C82.5433 55.9146 82.4347 56.0865 82.3938 56.1512C82.3653 56.196 82.3463 56.273 82.3719 56.3354C82.3898 56.3797 82.427 56.4094 82.4822 56.4234C82.502 56.4284 82.514 56.4486 82.5089 56.4682C82.5046 56.485 82.4893 56.4959 82.4728 56.4959Z" fill="#EE781D"/>
<path d="M83.2353 60.9451C83.2322 60.9451 83.229 60.9448 83.2259 60.944C83.127 60.9188 83.0838 60.8583 83.065 60.8121C83.0298 60.7253 83.0537 60.6239 83.0929 60.5618C83.1622 60.452 83.1873 60.3613 83.0844 60.2756C83.0321 60.2319 83.0244 60.1868 83.0272 60.1566C83.0361 60.0625 83.1534 59.9942 83.1668 59.9866C83.1847 59.9766 83.2074 59.9827 83.2177 60.0004C83.2279 60.018 83.2217 60.0404 83.2037 60.0505C83.1787 60.0648 83.106 60.1157 83.1017 60.1633C83.1011 60.1703 83.0992 60.1916 83.1327 60.2193C83.3061 60.3638 83.1975 60.5357 83.1566 60.6004C83.1281 60.6452 83.1091 60.7222 83.1347 60.7846C83.1526 60.8289 83.1898 60.8586 83.245 60.8726C83.2648 60.8776 83.2768 60.8978 83.2717 60.9174C83.2668 60.9342 83.2518 60.9451 83.2353 60.9451Z" fill="#EE781D"/>
<path d="M82.8735 59.8511C82.8704 59.8511 82.8672 59.8508 82.8641 59.85C82.7652 59.8248 82.722 59.7643 82.7033 59.7181C82.668 59.6313 82.6919 59.53 82.7311 59.4678C82.8005 59.358 82.8255 59.2673 82.7226 59.1816C82.6703 59.138 82.6626 59.0929 82.6655 59.0626C82.6743 58.9686 82.7917 58.9002 82.805 58.8927C82.8229 58.8826 82.8456 58.8888 82.8559 58.9064C82.8661 58.924 82.8599 58.9464 82.842 58.9565C82.8169 58.9708 82.7442 59.0218 82.7399 59.0694C82.7394 59.0764 82.7374 59.0976 82.7709 59.1254C82.9443 59.2698 82.8357 59.4418 82.7948 59.5064C82.7664 59.5512 82.7473 59.6282 82.7729 59.6907C82.7908 59.7349 82.828 59.7646 82.8832 59.7786C82.9031 59.7836 82.915 59.8038 82.9099 59.8234C82.9051 59.8399 82.89 59.8511 82.8735 59.8511Z" fill="#EE781D"/>
<path d="M85.5155 56.8467C85.5172 56.8492 85.5186 56.852 85.5198 56.8551C85.5542 56.95 85.5277 57.0192 85.4996 57.0604C85.4467 57.1376 85.3478 57.1754 85.2736 57.1782C85.1426 57.1833 85.0522 57.2138 85.0383 57.3463C85.0312 57.4135 84.9974 57.4451 84.9704 57.4596C84.8863 57.5053 84.7632 57.4482 84.7493 57.4414C84.7308 57.4325 84.7231 57.4106 84.7322 57.3924C84.7413 57.3742 84.7635 57.3667 84.782 57.3756C84.8078 57.3882 84.8917 57.4185 84.9343 57.3955C84.9406 57.3922 84.9593 57.3818 84.9641 57.3387C84.988 57.1161 85.1935 57.108 85.2708 57.1052C85.3245 57.1029 85.3995 57.0755 85.4379 57.0195C85.4649 56.98 85.4689 56.933 85.4499 56.8801C85.443 56.861 85.453 56.84 85.4723 56.833C85.4885 56.8271 85.5061 56.8333 85.5155 56.8467Z" fill="#EE781D"/>
<path d="M84.8778 60.2034C84.8778 60.2064 84.8775 60.2095 84.8766 60.2126C84.851 60.31 84.7897 60.3526 84.7428 60.3711C84.6547 60.4058 84.5518 60.3823 84.4887 60.3436C84.3773 60.2753 84.2852 60.2507 84.1982 60.352C84.1539 60.4036 84.1081 60.4111 84.0774 60.4083C83.9819 60.3996 83.9126 60.284 83.9049 60.2708C83.8947 60.2532 83.9009 60.2308 83.9188 60.2207C83.9367 60.2106 83.9595 60.2168 83.9697 60.2344C83.9842 60.2591 84.0359 60.3308 84.0843 60.3352C84.0914 60.3358 84.113 60.3378 84.1411 60.3047C84.2877 60.1339 84.4622 60.2409 84.5279 60.2812C84.5734 60.3092 84.6515 60.328 84.7149 60.3028C84.7598 60.2851 84.7899 60.2484 84.8042 60.1941C84.8093 60.1745 84.8297 60.1628 84.8496 60.1678C84.8664 60.1723 84.8778 60.1871 84.8778 60.2034Z" fill="#EE781D"/>
<path d="M83.2416 58.704C83.1353 58.704 83.0489 58.6189 83.0489 58.5141C83.0489 58.4097 83.1353 58.3246 83.2416 58.3246C83.3478 58.3246 83.4342 58.4097 83.4342 58.5141C83.434 58.6189 83.3476 58.704 83.2416 58.704ZM83.2416 58.3979C83.1765 58.3979 83.1236 58.45 83.1236 58.5141C83.1236 58.5783 83.1765 58.6303 83.2416 58.6303C83.3066 58.6303 83.3595 58.5783 83.3595 58.5141C83.3595 58.45 83.3066 58.3979 83.2416 58.3979Z" fill="#EE781D"/>
<path d="M86.1337 55.5724C86.0274 55.5724 85.941 55.4873 85.941 55.3826C85.941 55.2779 86.0274 55.1928 86.1337 55.1928C86.24 55.1928 86.3264 55.2779 86.3264 55.3826C86.3261 55.4873 86.2397 55.5724 86.1337 55.5724ZM86.1337 55.2664C86.0686 55.2664 86.0157 55.3185 86.0157 55.3826C86.0157 55.4467 86.0686 55.4988 86.1337 55.4988C86.1988 55.4988 86.2516 55.4467 86.2516 55.3826C86.2516 55.3185 86.1988 55.2664 86.1337 55.2664Z" fill="#EE781D"/>
<path d="M83.1492 55.9588C83.0429 55.9588 82.9565 55.8737 82.9565 55.769C82.9565 55.6643 83.0429 55.5794 83.1492 55.5794C83.2555 55.5794 83.3419 55.6646 83.3419 55.769C83.3416 55.8737 83.2555 55.9588 83.1492 55.9588ZM83.1492 55.6528C83.0841 55.6528 83.0312 55.7049 83.0312 55.769C83.0312 55.8331 83.0841 55.8852 83.1492 55.8852C83.2143 55.8852 83.2671 55.8331 83.2671 55.769C83.2671 55.7049 83.2143 55.6528 83.1492 55.6528Z" fill="#EE781D"/>
<path d="M81.7725 60.9454C81.6662 60.9454 81.5798 60.8602 81.5798 60.7555C81.5798 60.6511 81.6662 60.566 81.7725 60.566C81.8788 60.566 81.9652 60.6511 81.9652 60.7555C81.9652 60.8602 81.8788 60.9454 81.7725 60.9454ZM81.7725 60.6396C81.7074 60.6396 81.6545 60.6917 81.6545 60.7558C81.6545 60.8199 81.7074 60.872 81.7725 60.872C81.8376 60.872 81.8904 60.8199 81.8904 60.7558C81.8907 60.6917 81.8376 60.6396 81.7725 60.6396Z" fill="#EE781D"/>
<path d="M84.7757 53.9983C84.6694 53.9983 84.583 53.9132 84.583 53.8084C84.583 53.704 84.6694 53.6189 84.7757 53.6189C84.882 53.6189 84.9684 53.704 84.9684 53.8084C84.9681 53.9132 84.8817 53.9983 84.7757 53.9983ZM84.7757 53.6922C84.7106 53.6922 84.6578 53.7443 84.6578 53.8084C84.6578 53.8726 84.7106 53.9246 84.7757 53.9246C84.8408 53.9246 84.8937 53.8726 84.8937 53.8084C84.8937 53.7443 84.8408 53.6922 84.7757 53.6922Z" fill="#EE781D"/>
<path d="M86.2516 60.2879C86.1453 60.2879 86.0589 60.2028 86.0589 60.0981C86.0589 59.9934 86.1453 59.9082 86.2516 59.9082C86.3579 59.9082 86.4443 59.9934 86.4443 60.0981C86.4443 60.2028 86.3579 60.2879 86.2516 60.2879ZM86.2516 59.9819C86.1865 59.9819 86.1337 60.034 86.1337 60.0981C86.1337 60.1622 86.1865 60.2143 86.2516 60.2143C86.3167 60.2143 86.3696 60.1622 86.3696 60.0981C86.3696 60.034 86.3167 59.9819 86.2516 59.9819Z" fill="#EE781D"/>
<path d="M85.0602 50.8116L84.8482 52.0456C84.8482 52.0456 85.0807 53.2059 86.683 52.3233L86.2917 50.5596L85.0602 50.8116Z" fill="#FECECC"/>
<path opacity="0.1" d="M86.2914 50.5599L85.0602 50.8116L84.9681 51.347C84.9974 51.3554 85.0269 51.3635 85.0565 51.371C85.1978 51.4077 85.3418 51.4385 85.4797 51.4814C85.5877 51.515 85.6954 51.5581 85.7753 51.6216C85.8591 51.6886 85.9006 51.772 85.9063 51.8616C85.916 52.0083 85.8102 52.1366 85.7355 52.2679C85.6874 52.3522 85.6616 52.4656 85.5559 52.5241C85.4791 52.5666 85.3785 52.582 85.2793 52.5806C85.5516 52.705 85.9884 52.7064 86.683 52.3239L86.2914 50.5599Z" fill="#201135"/>
<path d="M83.9529 47.409C83.9529 47.409 83.2145 51.373 84.7197 51.4662C86.2252 51.5595 87.2571 49.9831 87.2571 49.9831C87.2571 49.9831 87.8821 49.8851 87.9248 49.1436C87.9591 48.5458 87.584 48.6539 87.584 48.6539C87.584 48.6539 87.8727 47.1288 86.7936 46.8303C85.7139 46.5324 83.9529 47.409 83.9529 47.409Z" fill="#FECECC"/>
<path opacity="0.1" d="M86.1666 49.4584C86.1831 49.5547 86.0765 49.653 85.9284 49.6776C85.7804 49.7022 85.6471 49.644 85.6306 49.5474C85.6141 49.4511 85.7207 49.3528 85.8688 49.3282C86.0168 49.3038 86.1501 49.362 86.1666 49.4584Z" fill="#201135"/>
<path opacity="0.1" d="M84.4895 49.4676C84.506 49.5639 84.3994 49.6622 84.2513 49.6866C84.1032 49.7112 83.9699 49.6529 83.9535 49.5563C83.937 49.46 84.0436 49.3618 84.1916 49.3374C84.3394 49.3128 84.4727 49.371 84.4895 49.4676Z" fill="#201135"/>
<path d="M84.5606 48.561C84.5463 48.561 84.5324 48.5537 84.5247 48.5405C84.5179 48.529 84.3579 48.2686 83.9651 48.44C83.9441 48.4492 83.9197 48.4397 83.9106 48.4193C83.9012 48.3988 83.9106 48.3745 83.9316 48.3655C84.3946 48.1634 84.5944 48.4968 84.5964 48.4999C84.6077 48.5195 84.6009 48.5444 84.581 48.5556C84.5745 48.5593 84.5674 48.561 84.5606 48.561Z" fill="#000141"/>
<path d="M85.3635 48.5682C85.3583 48.5682 85.3532 48.5674 85.3481 48.5654C85.3268 48.557 85.3163 48.5335 85.3248 48.5125C85.3262 48.5089 85.4769 48.153 86.0211 48.2678C86.0436 48.2726 86.0578 48.2941 86.053 48.3162C86.0481 48.3381 86.0265 48.3524 86.0038 48.3476C85.5269 48.2468 85.403 48.5397 85.4018 48.5428C85.3953 48.5584 85.3799 48.5682 85.3635 48.5682Z" fill="#000141"/>
<path d="M84.8919 49.5888C84.8777 49.5888 84.8635 49.5869 84.8496 49.5829C84.7618 49.5577 84.7248 49.4603 84.7231 49.4564C84.7186 49.4444 84.7203 49.4309 84.7274 49.42C84.876 49.1954 84.8365 48.8922 84.8359 48.8891C84.8328 48.8667 84.8487 48.8463 84.8715 48.8432C84.8948 48.8398 84.9149 48.8558 84.9181 48.8782C84.9201 48.8914 84.9599 49.1985 84.8089 49.4452C84.8209 49.4665 84.843 49.4962 84.8729 49.5048C84.9007 49.5127 84.9348 49.5017 84.9741 49.4723C84.9922 49.4586 85.0181 49.462 85.032 49.4799C85.046 49.4978 85.0426 49.5233 85.0244 49.537C84.9789 49.5715 84.9343 49.5888 84.8919 49.5888Z" fill="#000141"/>
<path d="M84.3607 50.12C84.3607 50.12 84.8328 50.3308 85.3617 50.0884C85.4817 50.3051 84.855 50.8687 84.3607 50.12Z" fill="#FCFAF7"/>
<path d="M84.4349 48.8897C84.4349 49.0168 84.3633 49.1198 84.2752 49.1198C84.1871 49.1198 84.1155 49.0168 84.1155 48.8897C84.1155 48.7626 84.1871 48.6598 84.2752 48.6598C84.3633 48.6598 84.4349 48.7628 84.4349 48.8897Z" fill="#000141"/>
<path d="M85.8725 48.8897C85.8725 49.0168 85.8011 49.1198 85.7127 49.1198C85.6246 49.1198 85.553 49.0168 85.553 48.8897C85.553 48.7626 85.6246 48.6598 85.7127 48.6598C85.8011 48.6598 85.8725 48.7628 85.8725 48.8897Z" fill="#000141"/>
<path opacity="0.1" d="M84.9729 50.6976C84.9292 50.6976 84.9007 50.6912 84.8979 50.6906C84.8868 50.6881 84.88 50.6772 84.8826 50.6663C84.8851 50.6554 84.8965 50.6486 84.9076 50.6512C84.9093 50.6517 85.0909 50.6915 85.2557 50.5506C85.2645 50.5436 85.2776 50.5445 85.285 50.5529C85.2924 50.5613 85.2915 50.5742 85.283 50.5817C85.1682 50.6792 85.048 50.6976 84.9729 50.6976Z" fill="#201135"/>
<path opacity="0.1" d="M87.5127 48.8967C87.5127 48.8967 87.754 48.7847 87.8014 48.9527C87.8489 49.1207 87.6974 49.5449 87.4655 49.6429C87.4655 49.6429 87.8867 49.2419 87.7494 48.9992C87.6121 48.7567 87.5269 49.0132 87.5127 48.8967Z" fill="#201135"/>
<path d="M86.6165 51.9739C86.6165 51.9739 86.9775 52.3015 86.7822 52.8046C86.6165 53.2316 86.402 53.6071 85.7955 53.5035C85.189 53.3999 85.1674 52.8046 85.1674 52.8046C85.1674 52.8046 84.6433 53.4895 84.2059 53.1297C83.4629 52.5182 84.8689 51.9266 84.8689 51.9266C84.8689 51.9266 84.8485 52.2743 85.3805 52.43C85.9126 52.586 86.6165 51.9739 86.6165 51.9739Z" fill="#EE781D"/>
<path d="M86.2144 47.0784C86.2144 47.0784 85.7795 47.8582 85.3129 47.8248C84.8462 47.7915 84.8024 47.7061 84.8024 47.7061C84.8024 47.7061 84.5319 48.1144 83.8409 48.081C83.15 48.0477 83.0935 47.5807 83.0935 47.5807C83.0935 47.5807 82.581 47.4222 82.7317 46.8555C82.8823 46.2888 83.3672 46.4654 83.3672 46.4654C83.3672 46.4654 83.1088 46.1199 83.6042 45.7414C84.0999 45.3625 84.5799 46.0421 84.5799 46.0421C84.5799 46.0421 84.7126 45.8458 85.3959 45.6266C86.0791 45.407 86.5475 46.1314 86.5475 46.1314C86.5475 46.1314 87.4925 45.8307 87.6849 46.7219C87.6849 46.7219 88.3181 47.0896 88.0356 47.6356C88.0356 47.6356 88.5136 48.7273 87.5317 48.7329C87.5317 48.7329 87.3683 49.2828 86.9724 49.2503C86.5765 49.2178 86.805 48.6763 86.7191 48.4624C86.6327 48.2482 85.9995 48.0589 86.2144 47.0784Z" fill="#000141"/>
<path d="M90.0311 57.477C90.0311 57.477 91.2282 60.7575 90.6555 61.3432H85.941C85.941 61.3432 87.8784 60.7012 87.9268 59.9819C87.9751 59.2625 87.2725 58.1714 87.2725 58.1714L90.0311 57.477Z" fill="#FECECC"/>
<path d="M86.9712 58.7345C86.9712 58.7345 89.1784 59.3832 90.3766 57.8701C90.3766 57.8701 89.8278 54.1237 87.5718 52.5036C86.2252 52.8144 86.9712 58.7345 86.9712 58.7345Z" fill="#EE781D"/>
<path opacity="0.1" d="M79.2945 37.6018H58.3339C57.7698 37.6018 57.3125 38.0528 57.3133 38.6086L57.3264 48.914C57.327 49.469 57.784 49.9184 58.347 49.9184H76.0763L78.196 50.6327L78.6396 49.9184H79.2947C80.6797 49.9184 81.8023 48.8124 81.8023 47.448V40.0725C81.802 38.708 80.6794 37.6018 79.2945 37.6018Z" fill="#000141"/>
<path d="M78.196 48.9314V50.6327L74.6501 49.1364L78.196 48.9314Z" fill="white"/>
<path d="M58.7617 37.2358H78.8502C80.2352 37.2358 81.3578 38.3418 81.3578 39.7062V47.0812C81.3578 48.4456 80.2352 49.5516 78.8502 49.5516H58.7617C57.3767 49.5516 56.2541 48.4456 56.2541 47.0812V39.7062C56.2541 38.3418 57.3767 37.2358 58.7617 37.2358Z" fill="white"/>
<path d="M59.8857 43.0478C59.1405 43.0478 58.5366 43.6428 58.5366 44.3769C58.5366 45.1111 59.1405 45.7061 59.8857 45.7061C60.6309 45.7061 61.2349 45.1111 61.2349 44.3769C61.2349 43.6428 60.6309 43.0478 59.8857 43.0478ZM59.8857 45.4871C59.263 45.4871 58.7571 44.9901 58.7571 44.3766C58.7571 43.7632 59.2627 43.2662 59.8857 43.2662C60.5084 43.2662 61.0129 43.7632 61.0129 44.3766C61.0129 44.9901 60.5084 45.4871 59.8857 45.4871Z" fill="#EE781D"/>
<path d="M60.0628 44.3766C60.0628 44.4732 59.9835 44.5514 59.8854 44.5514C59.7874 44.5514 59.7078 44.4732 59.7078 44.3766C59.7078 44.28 59.7874 44.2019 59.8854 44.2019C59.9835 44.2019 60.0628 44.28 60.0628 44.3766Z" fill="#EE781D"/>
<path d="M59.8851 43.4353C59.8223 43.4353 59.7712 43.4854 59.7712 43.5476V44.3268C59.7712 44.3887 59.8221 44.4391 59.8851 44.4391C59.948 44.4391 59.9991 44.389 59.9991 44.3268V43.5476C59.9991 43.4854 59.948 43.4353 59.8851 43.4353Z" fill="#EE781D"/>
<path d="M60.5511 43.7564C60.5067 43.7128 60.4345 43.7128 60.3899 43.7564L59.8306 44.3075C59.7862 44.3512 59.7862 44.4223 59.8306 44.4662C59.8749 44.5099 59.9471 44.5099 59.9917 44.4662L60.5511 43.9152C60.5954 43.8712 60.5954 43.8001 60.5511 43.7564Z" fill="#EE781D"/>
<path d="M66.3521 43.356H62.8026C62.7153 43.356 62.6343 43.4148 62.6204 43.4997C62.6025 43.608 62.6869 43.7013 62.7932 43.7013H66.3524C66.4493 43.7013 66.5278 43.624 66.5278 43.5285C66.5272 43.4333 66.4487 43.356 66.3521 43.356Z" fill="#EE781D"/>
<path d="M73.1308 43.356H66.9404C66.8435 43.356 66.765 43.4333 66.765 43.5288C66.765 43.6243 66.8435 43.7016 66.9404 43.7016H73.1401C73.2467 43.7016 73.3309 43.608 73.3129 43.5C73.299 43.4148 73.218 43.356 73.1308 43.356Z" fill="#EE781D"/>
<path d="M67.8817 44.2039H62.802C62.7147 44.2039 62.6337 44.2627 62.6195 44.3475C62.6016 44.4556 62.686 44.5494 62.7923 44.5494H67.8814C67.9783 44.5494 68.0568 44.4721 68.0568 44.3766C68.057 44.2814 67.9786 44.2039 67.8817 44.2039Z" fill="#EE781D"/>
<path d="M67.8817 45.052H62.802C62.7147 45.052 62.6337 45.1108 62.6195 45.1956C62.6016 45.304 62.686 45.3975 62.7923 45.3975H67.8814C67.9783 45.3975 68.0568 45.3202 68.0568 45.2247C68.057 45.1293 67.9786 45.052 67.8817 45.052Z" fill="#EE781D"/>
<path d="M73.1308 44.2039H68.4706C68.3737 44.2039 68.2952 44.2812 68.2952 44.3766C68.2952 44.4721 68.3737 44.5494 68.4706 44.5494H73.1402C73.2467 44.5494 73.3309 44.4559 73.313 44.3475C73.299 44.2627 73.218 44.2039 73.1308 44.2039Z" fill="#EE781D"/>
<path d="M56.698 40.9996V39.7062C56.698 38.5851 57.6237 37.6732 58.7614 37.6732H78.8499C79.9876 37.6732 80.9133 38.5851 80.9133 39.7062V40.9996H56.698Z" fill="#F9AE2B"/>
<path d="M78.973 42.327H75.7293C75.1333 42.327 74.6501 42.803 74.6501 43.3902V46.5643C74.6501 47.1514 75.1333 47.6274 75.7293 47.6274H78.973C79.569 47.6274 80.0521 47.1514 80.0521 46.5643V43.3902C80.0521 42.803 79.569 42.327 78.973 42.327Z" fill="#E7F0FE"/>
<path d="M79.8611 43.9468V43.3902C79.8611 42.9078 79.4627 42.5152 78.973 42.5152H75.7293C75.2396 42.5152 74.8411 42.9078 74.8411 43.3902V43.9468H79.8611Z" fill="#EE781D"/>
<path d="M76.4231 43.4117L76.3827 43.534H76.25L76.4228 43.0619H76.5757L76.7485 43.534H76.6123L76.572 43.4117H76.4231ZM76.4538 43.3159H76.5427L76.4984 43.1709L76.4538 43.3159Z" fill="white"/>
<path d="M77.22 43.2152C77.22 43.3082 77.1569 43.3569 77.0872 43.365C77.0617 43.3678 77.0421 43.3684 77.0122 43.3684H76.9565V43.5338H76.8315V43.0618H77.0119C77.0418 43.0618 77.0611 43.0623 77.087 43.0651C77.1569 43.0735 77.22 43.122 77.22 43.2152ZM77.0895 43.2152C77.0895 43.1796 77.0708 43.1612 77.0389 43.1584C77.0298 43.1578 77.0187 43.1578 77.0057 43.1578H76.9571V43.2729H77.0057C77.0187 43.2729 77.0301 43.2729 77.0389 43.2723C77.0708 43.2692 77.0895 43.2508 77.0895 43.2152Z" fill="white"/>
<path d="M77.7267 43.5338H77.5906C77.5795 43.5002 77.5724 43.4731 77.5684 43.4395C77.5622 43.3874 77.5414 43.3574 77.5093 43.3552C77.4954 43.3544 77.4837 43.3544 77.4698 43.3544H77.4419V43.5336H77.3169V43.0615H77.507C77.5369 43.0615 77.5565 43.062 77.5821 43.0648C77.6514 43.073 77.7119 43.1066 77.7119 43.19C77.7119 43.2496 77.6793 43.2891 77.6153 43.3076C77.6653 43.3255 77.6835 43.3616 77.6903 43.4185C77.6969 43.4725 77.708 43.5058 77.7267 43.5338ZM77.4871 43.2659C77.5002 43.2659 77.5116 43.2659 77.5204 43.2653C77.5522 43.2625 77.5815 43.2516 77.5815 43.2121C77.5815 43.1726 77.5559 43.1614 77.5238 43.1586C77.5147 43.1581 77.5036 43.1581 77.4906 43.1581H77.4419V43.2662H77.4871V43.2659Z" fill="white"/>
<path d="M77.8288 43.5338V43.0618H77.9538V43.5338H77.8288Z" fill="white"/>
<path d="M78.4523 43.5338H78.0851V43.0618H78.2102V43.4299H78.4526V43.5338H78.4523Z" fill="white"/>
<path d="M77.0915 46.0611V46.4268H75.6736V46.2232L76.2488 45.6907C76.5217 45.4373 76.6146 45.3121 76.6146 45.1399C76.6146 45.0041 76.5379 44.9285 76.408 44.9285C76.2701 44.9285 76.2014 45.0148 76.1826 45.2026L76.18 45.2287H75.7031L75.7057 45.2026C75.7455 44.8059 75.9999 44.5838 76.4478 44.5838C76.8744 44.5838 77.1131 44.7849 77.1131 45.1217C77.1131 45.3331 77.0151 45.4952 76.6626 45.8293L76.4188 46.0617H77.0915V46.0611Z" fill="#EE781D"/>
<path d="M79.0287 45.8914C79.0287 46.2361 78.7425 46.4632 78.2812 46.4632C77.8174 46.4632 77.5471 46.2412 77.5099 45.8811L77.5073 45.855H77.9842L77.9896 45.8811C78.0161 46.0065 78.1062 46.1188 78.2628 46.1188C78.427 46.1188 78.5305 46.0275 78.5305 45.9046C78.5305 45.7506 78.4165 45.6722 78.2258 45.6644L78.1542 45.6618V45.3589L78.2258 45.3536C78.4006 45.3404 78.4881 45.2466 78.4881 45.1237C78.4881 45.0061 78.4165 44.933 78.2841 44.933C78.1437 44.933 78.0854 45.0453 78.0746 45.1629L78.0721 45.1889H77.5949L77.5974 45.1629C77.6293 44.8599 77.8572 44.5883 78.3315 44.5883C78.7795 44.5883 78.9861 44.8129 78.9861 45.0688C78.9861 45.2802 78.8775 45.4213 78.6388 45.4787C78.8988 45.5283 79.0287 45.659 79.0287 45.8914Z" fill="#EE781D"/>
<path d="M44.1882 26.9822C43.8949 28.8655 43.9909 30.0132 44.1538 30.9271C44.4377 32.538 44.928 33.4398 43.869 36.3902C42.2075 41.0155 37.4385 37.6149 33.2344 41.6027C28.6098 45.9948 24.2264 47.7879 20.5589 47.8145C16.2483 47.8467 12.9213 45.4311 11.3354 41.9121C8.40153 35.3911 11.0825 33.4065 16.9389 31.5232C22.792 29.6402 20.1514 24.2709 23.2643 22.3353C26.3778 20.4033 30.1601 20.944 31.642 19.7106C33.1233 18.4772 37.638 16.7879 41.7173 18.3949C45.1255 19.7324 44.9939 21.7893 44.1882 26.9822Z" fill="#000141"/>
<path opacity="0.5" d="M43.869 36.3902C42.2075 41.0155 37.4385 37.6149 33.2344 41.6027C28.6098 45.9948 24.2264 47.7879 20.5589 47.8145C20.572 47.7212 20.5817 47.6283 20.5953 47.5387C21.0054 44.6048 21.8785 41.5433 23.2453 38.9035C24.5774 36.328 26.5654 34.2672 28.8968 32.5444C30.0703 31.6733 31.3046 30.8862 32.5259 30.0832C33.1696 29.6582 33.8259 29.2494 34.5279 28.9192C35.1966 28.6076 35.9489 28.3912 36.5338 27.9275C37.4763 27.1802 37.7744 26.0366 37.8949 24.9043C38.0001 23.9044 38.0205 22.855 38.724 22.1161C40.4579 21.8526 40.4778 24.4266 40.5824 25.5839C40.6665 26.5252 40.8223 27.4683 41.1093 28.3738C41.4734 29.5201 42.2064 30.3601 43.3782 30.7404C43.632 30.8218 43.8903 30.8848 44.1532 30.9266C44.4377 32.538 44.9283 33.4396 43.869 36.3902Z" fill="black"/>
<path d="M42.6398 34.2947L42.4065 30.8484C42.4065 30.8484 48.7756 32.3338 50.8933 45.8239C51.6749 50.8046 50.1066 52.8052 47.6465 53.1949C45.1861 53.585 38.9908 44.975 42.6398 34.2947Z" fill="#F9AE2B"/>
<path d="M53.8963 27.8897C53.8886 27.9437 53.8767 27.9916 53.8639 28.0283C53.861 28.0358 53.8587 28.0425 53.8562 28.0484C53.7922 28.2035 53.7206 28.3547 53.6496 28.4925C53.4594 28.8635 53.2753 29.1407 53.2753 29.1407C53.2753 29.1407 53.2252 31.5596 53.101 31.8508C52.8626 32.0972 51.5387 31.7741 51.5387 31.7741C51.3594 31.5355 51.7132 29.1267 51.6834 28.6499C51.6541 28.1725 51.8249 27.6315 51.8249 27.6315C51.8249 27.6315 51.8585 25.1661 52.4241 25.1748C52.6756 25.1784 52.5679 26.423 52.5815 26.901C52.5818 26.9049 52.5815 26.9088 52.5818 26.9127C52.5824 26.9116 52.7552 26.7747 52.9297 26.8758C53.0152 26.9248 53.0399 26.9867 53.0399 26.9867C53.0399 26.9867 53.1638 26.9419 53.2542 26.9687C53.3452 26.9956 53.4677 27.0855 53.4657 27.1303C53.4674 27.1303 53.5748 27.0849 53.6715 27.1538C53.7681 27.2221 53.7974 27.396 53.7974 27.396H53.7962C53.8087 27.4137 53.8204 27.4313 53.8306 27.4495C53.9082 27.5889 53.9147 27.7583 53.8963 27.8897Z" fill="#FECECC"/>
<path opacity="0.2" d="M53.8963 27.8897C53.8798 27.8717 53.8605 27.8569 53.8366 27.8479C53.7306 27.8082 53.6621 27.8983 53.6237 27.9753C53.6013 28.0204 53.5862 28.0711 53.5581 28.1134C53.5345 28.1506 53.4924 28.1809 53.4537 28.2033C53.1249 28.4004 52.4761 28.2332 52.4709 27.8135C52.4687 27.6416 52.4823 27.4629 52.5051 27.2938C52.5241 27.1524 52.5343 27.046 52.5818 26.9127C52.5824 26.9116 52.7552 26.7747 52.9297 26.8758C53.0152 26.9248 53.0399 26.9867 53.0399 26.9867C53.0399 26.9867 53.1639 26.9419 53.2542 26.9687C53.3452 26.9956 53.4677 27.0855 53.4657 27.1303C53.4674 27.1303 53.5748 27.0849 53.6715 27.1538C53.7681 27.2221 53.7974 27.396 53.7974 27.396H53.7962C53.8087 27.4137 53.8204 27.4313 53.8306 27.4495C53.9082 27.5889 53.9147 27.7583 53.8963 27.8897Z" fill="white"/>
<path opacity="0.1" d="M53.6578 27.8919C53.5612 28.3158 53.3264 28.4088 53.2224 28.4289C52.9447 28.3626 52.6875 28.2545 52.5659 28.1408C52.4809 28.0616 52.4533 27.8801 52.457 27.6746C52.4547 27.6858 52.4525 27.697 52.4502 27.7085C52.4161 27.8972 52.3874 28.1151 52.4741 28.2945C52.5596 28.4718 52.7497 28.5521 52.9402 28.5594C53.0931 28.5653 53.2463 28.5334 53.3926 28.4849H53.3929C53.3932 28.4849 53.3935 28.4847 53.3938 28.4844C53.4074 28.4799 53.421 28.4754 53.4347 28.4707C53.431 28.4701 53.4273 28.4695 53.4236 28.4687C53.651 28.3391 53.6578 27.8919 53.6578 27.8919Z" fill="#F9AE2B"/>
<path d="M53.2162 28.3805C53.2727 28.2542 53.3074 28.1506 53.3429 28.0185C53.3781 27.8835 53.4023 27.7438 53.3935 27.6049C53.3924 27.7441 53.3588 27.8796 53.3148 28.0103C53.2699 28.1405 53.1536 28.3797 53.1536 28.3797C53.1059 28.3788 52.9481 28.3217 52.8813 28.2934C52.8779 28.292 52.8748 28.2906 52.8714 28.2892C52.9177 28.1562 52.9587 28.0227 52.9933 27.8869C53.0277 27.7497 53.0581 27.6099 53.0638 27.4685C53.0485 27.6091 53.0087 27.7452 52.9652 27.879C52.9217 28.0101 52.872 28.1394 52.818 28.266C52.7731 28.2458 52.7287 28.2251 52.6878 28.1993C52.575 28.1282 52.5247 28.07 52.4891 27.8603C52.4772 27.79 52.4749 27.7177 52.4735 27.6455C52.4704 27.5733 52.4721 27.501 52.4738 27.4282C52.4462 27.5713 52.4346 27.7175 52.4445 27.8647C52.4499 27.9384 52.4613 28.0129 52.4934 28.0845C52.5028 28.1019 52.5102 28.1204 52.5238 28.1361L52.5429 28.1601L52.5645 28.1803C52.5787 28.1943 52.5937 28.2061 52.6096 28.217C52.625 28.2287 52.6409 28.2394 52.6574 28.2486C52.7884 28.3253 52.9299 28.3735 53.0732 28.411C53.2164 28.4483 53.356 28.4407 53.4844 28.2679C53.4012 28.3657 53.2466 28.3892 53.2162 28.3805Z" fill="#EAB2B2"/>
<path opacity="0.1" d="M53.2616 29.1169C53.0789 29.2591 52.7023 29.2387 52.3607 29.1855C52.1009 29.1452 51.8923 28.9929 51.7442 28.8419C51.7627 28.8856 51.7826 28.9293 51.8062 28.9716C51.8676 29.0819 52.1086 29.5744 52.4496 29.5968C52.9828 29.6318 53.1542 29.188 53.2588 29.1379C53.2596 29.1309 53.2608 29.1239 53.2616 29.1169Z" fill="#F9AE2B"/>
<path opacity="0.1" d="M52.4107 27.5369C52.4107 27.5369 52.4647 27.6839 52.3328 27.7284C52.2009 27.7726 51.9972 27.592 51.9443 27.9588C51.8914 28.3253 51.7198 28.7473 51.6797 28.4477C51.6399 28.1481 51.5893 27.6144 51.7979 27.5355C52.0068 27.4559 52.4107 27.5369 52.4107 27.5369Z" fill="#F9AE2B"/>
<path d="M51.6834 28.6499C51.6834 28.6499 51.2935 27.9244 51.2838 27.6769C51.2741 27.4293 51.5797 27.1255 51.7675 27.1029C51.9412 27.0821 52.3189 27.3005 52.3922 27.4123C52.4655 27.524 52.5289 27.6816 52.1788 27.6578C51.8283 27.634 51.8084 27.7259 51.8084 27.7259L51.6834 28.6499Z" fill="#EAB2B2"/>
<path opacity="0.2" d="M52.1677 27.4305C52.1677 27.4305 52.3578 27.5685 52.401 27.5531C52.4442 27.5377 52.3672 27.384 52.2947 27.3557C52.2223 27.3274 52.1677 27.4305 52.1677 27.4305Z" fill="white"/>
<path d="M51.3378 30.3677C51.3375 30.6547 47.859 43.1371 47.6649 44.0499C45.8824 52.4308 51.02 52.6604 51.02 52.6604C51.0956 52.6355 51.1707 52.6095 51.2392 52.5756C56.769 49.8557 53.4893 30.2697 53.4893 30.2697C53.4893 30.2697 51.3438 30.0711 51.3378 30.3677Z" fill="#F9AE2B"/>
<g opacity="0.1">
<path d="M52.1924 49.9338C51.7183 49.8447 51.3122 49.5855 51.1343 49.1302C50.9515 48.6629 50.9876 48.132 51.0485 47.6448C51.1201 47.0713 51.2483 46.5063 51.3364 45.9354C51.4097 45.4585 51.491 44.9221 51.3258 44.4547C51.0502 43.6747 50.5326 43.0066 50.0767 42.3234C49.5984 41.606 49.1874 40.8609 49.0567 40.0016C49.0129 39.7138 48.9928 39.4243 48.9837 39.1342C48.3126 41.5906 47.7405 43.6951 47.6649 44.0499C45.8824 52.4308 51.02 52.6604 51.02 52.6604C51.0956 52.6355 51.1707 52.6095 51.2392 52.5756C52.1793 52.113 52.8646 51.1621 53.3548 49.9038C52.9757 49.9945 52.5764 50.006 52.1924 49.9338Z" fill="#000141"/>
</g>
<path d="M27.6196 61.5342H48.1225C46.4988 51.7572 48.8615 31.6478 39.9142 29.8088C35.1762 28.835 26.3989 35.236 28.4472 43.7623C29.0091 49.7039 29.8913 55.5702 27.6196 61.5342Z" fill="#C7DBFF"/>
<path d="M44.2896 46.3523C44.2896 46.5864 44.3016 46.8322 44.3135 47.066C44.3016 47.0778 44.3135 47.0778 44.3135 47.0778C44.3334 47.8489 44.3667 48.6539 44.4087 49.4424C44.4195 49.7428 44.4232 50.031 44.4562 50.3205C44.4761 50.8987 44.5093 51.5427 44.5392 52.1231C44.7418 56.6345 45.331 58.7667 45.9895 61.5342H50.1003C48.8265 29.3516 42.8726 31.2679 42.2035 30.8277C42.087 34.0287 44.1035 41.8029 44.2896 46.3291C44.278 46.3406 44.278 46.3406 44.2896 46.3523Z" fill="#C7DBFF"/>
<path d="M36.1365 61.3429C36.4807 59.8701 38.3678 58.6342 38.4568 55.7113C38.4687 55.6995 38.4687 55.6878 38.4568 55.676C38.475 55.3843 38.467 55.0446 38.4687 54.7512C38.4687 54.7397 38.4687 54.7397 38.4568 54.7282C38.4292 49.5969 37.7096 44.3962 36.7933 39.3705C36.7817 39.3587 36.7817 39.3587 36.7817 39.3587C36.2888 37.3321 35.9404 30.5222 36.3639 30.1789C35.4945 30.8831 33.8813 33.3357 33.1605 34.1194C33.5485 35.0143 34.7854 36.7413 35.1895 37.6729L31.91 44.0994C36.5659 50.8211 36.1365 61.3429 36.1365 61.3429Z" fill="#F9AE2B"/>
<path d="M43.1133 37.97C43.5024 42.1439 41.0545 53.0306 43.5754 61.2738C43.5754 61.2738 44.0103 50.8211 45.8227 44.296L43.2361 38.7828C45.5152 37.6552 44.8265 35.0148 45.1014 34.12C44.2814 33.3362 42.5006 30.7132 41.449 30.3766C42.398 30.6802 42.6671 33.1817 43.1133 37.97Z" fill="#F9AE2B"/>
<path d="M36.1365 30.6611C35.9873 31.3129 36.712 34.1681 38.4196 35.4824C39.1133 36.0503 39.8923 36.3762 40.65 36.2499C43.1792 35.8503 41.9733 31.7391 41.5359 30.5404C41.5251 30.4984 41.5038 30.4561 41.4933 30.4248C41.0877 29.405 41.2372 25.9143 41.2372 25.9143L38.6438 25.3781C38.6438 25.3781 38.8038 25.9879 38.1422 27.7438C37.4694 29.4997 36.3605 29.7466 36.1365 30.6611Z" fill="#FECECC"/>
<path opacity="0.5" d="M38.4196 35.4824C39.1133 36.0503 39.8923 36.3762 40.65 36.2499C43.1792 35.8504 41.9733 31.7391 41.5359 30.5404C41.5251 30.4984 41.5038 30.4562 41.4933 30.4248C41.0877 29.405 41.2372 25.9143 41.2372 25.9143L38.8038 25.4201C38.8894 25.4831 38.9425 25.5884 38.9533 25.725C39.0067 27.1233 40.234 28.1011 40.7461 29.3418C41.1409 30.2988 41.3969 31.6128 40.7995 32.5486C40.6287 32.8222 39.4333 34.3154 38.4196 35.4824Z" fill="#EAB2B2"/>
<path d="M43.0533 27.1967C42.1285 28.4707 38.716 27.3686 38.3303 25.7264C38.2104 25.2095 38.0043 24.3208 38.0043 24.3208C38.0043 24.3208 37.1838 23.9669 37.3006 23.1392C37.3984 22.4986 37.9361 22.9034 37.9361 22.9034L37.9333 22.192L42.9996 21.5762C42.9996 21.5762 43.0789 21.938 43.1824 22.4952C43.2324 22.7822 43.2793 23.1291 43.3316 23.4948C43.4959 24.8256 43.568 26.4956 43.0533 27.1967Z" fill="#FECECC"/>
<path opacity="0.5" d="M43.3316 23.4942C42.5901 23.6407 41.669 23.7619 41.192 23.7244C40.3522 23.653 37.9452 22.766 37.9452 22.766L42.8655 21.2971C43.1733 21.674 43.2793 23.1286 43.3316 23.4942Z" fill="#EAB2B2"/>
<path opacity="0.1" d="M39.9145 25.2616C39.9077 25.4094 40.0859 25.5377 40.3127 25.548C40.5395 25.5584 40.7291 25.4472 40.7362 25.2994C40.7433 25.1518 40.5651 25.0236 40.338 25.013C40.1112 25.0026 39.9216 25.114 39.9145 25.2616Z" fill="#201135"/>
<path opacity="0.1" d="M42.4346 24.9754C42.4275 25.123 42.6057 25.2512 42.8328 25.2616C43.0596 25.272 43.2492 25.1608 43.2563 25.013C43.2634 24.8654 43.0849 24.7372 42.8581 24.7268C42.631 24.7162 42.4417 24.8276 42.4346 24.9754Z" fill="#201135"/>
<path d="M42.1609 23.627C42.1825 23.6244 42.2018 23.611 42.2109 23.59C42.2189 23.5718 42.4116 23.1518 43.0326 23.3388C43.0661 23.3486 43.1008 23.3304 43.1107 23.298C43.1207 23.2655 43.1022 23.231 43.0692 23.221C42.3371 23 42.0981 23.5365 42.0958 23.5418C42.0825 23.5732 42.0972 23.6093 42.1291 23.6228C42.1393 23.627 42.1504 23.6284 42.1609 23.627Z" fill="#000141"/>
<path d="M40.9567 23.7815C40.9644 23.7807 40.9721 23.7781 40.9792 23.7745C41.0096 23.7583 41.0209 23.7207 41.0042 23.6911C41.0013 23.6857 40.7097 23.1787 39.9137 23.4483C39.881 23.4592 39.8636 23.4945 39.875 23.5267C39.8864 23.5589 39.9213 23.5763 39.9546 23.5651C40.652 23.3285 40.8919 23.7459 40.8945 23.7501C40.9067 23.7725 40.932 23.7846 40.9567 23.7815Z" fill="#000141"/>
<path d="M41.8526 25.2297C41.8742 25.2271 41.8949 25.2215 41.9148 25.2131C42.0418 25.1597 42.0796 25.0068 42.0813 25.0003C42.0859 24.9813 42.0811 24.9614 42.0683 24.9466C41.804 24.6361 41.8074 24.1735 41.8074 24.169C41.8079 24.1349 41.7801 24.1069 41.7457 24.1066C41.7102 24.1057 41.6826 24.1335 41.6823 24.1673C41.682 24.1878 41.6786 24.6557 41.9506 24.9992C41.9367 25.0334 41.9088 25.0821 41.8653 25.1C41.825 25.1165 41.7716 25.1067 41.7076 25.0692C41.6778 25.0519 41.6394 25.0617 41.6221 25.0911C41.6044 25.1205 41.6144 25.1583 41.6442 25.1756C41.719 25.219 41.7889 25.2372 41.8526 25.2297Z" fill="#000141"/>
<path d="M42.7481 25.9322C42.7481 25.9322 42.0782 26.3331 41.2392 26.0638C41.0991 26.4101 42.1442 27.1443 42.7481 25.9322Z" fill="#FCFAF7"/>
<path d="M42.4099 24.0982C42.4332 24.2889 42.5597 24.4308 42.6921 24.4149C42.8245 24.3992 42.9129 24.2315 42.8896 24.0408C42.8663 23.8501 42.7399 23.7081 42.6074 23.7241C42.475 23.7401 42.3866 23.9075 42.4099 24.0982Z" fill="#000141"/>
<path d="M40.2516 24.3552C40.2749 24.5459 40.4014 24.6879 40.5338 24.6719C40.6662 24.6562 40.7546 24.4888 40.7313 24.2978C40.708 24.1072 40.5816 23.9652 40.4491 23.9812C40.3164 23.9971 40.228 24.1646 40.2516 24.3552Z" fill="#000141"/>
<path opacity="0.1" d="M41.9353 26.9088C42.0009 26.901 42.0424 26.8864 42.0467 26.8848C42.0629 26.8789 42.0711 26.8612 42.0651 26.8453C42.0592 26.8293 42.041 26.8212 42.0251 26.8268C42.0225 26.8279 41.7571 26.92 41.4839 26.738C41.4691 26.7291 41.4501 26.7324 41.4404 26.7464C41.4308 26.7604 41.4348 26.7798 41.449 26.7893C41.6388 26.9158 41.8227 26.9223 41.9353 26.9088Z" fill="#201135"/>
<path opacity="0.5" d="M37.8165 23.0675C37.8165 23.0675 37.6329 22.8729 37.5448 23.021C37.4572 23.1694 37.5152 23.7331 37.7983 23.9221C37.7983 23.9221 37.5075 23.4164 37.5905 23.2431C37.6732 23.0695 37.8966 23.2134 37.8165 23.0675Z" fill="#EAB2B2"/>
<path d="M43.1011 22.5912C43.0121 22.1752 42.8604 21.9279 42.3741 21.8235C42.2811 21.8033 42.8203 22.1777 42.8641 22.7237C42.6012 22.8995 42.2902 23.049 41.964 23.144C40.7595 23.4982 37.8281 22.7293 37.8281 22.7293C37.4524 18.7214 43.2165 19.7722 43.8207 21.1954C43.9537 21.5068 43.5621 22.1668 43.1011 22.5912Z" fill="#000141"/>
<path d="M41.572 59.3275C44.0432 52.691 45.1625 45.6949 44.8157 38.1066C44.8012 37.7972 44.5739 37.5757 44.3121 37.6093C40.7569 38.073 36.9471 38.4401 32.8613 38.7044C32.6657 38.717 32.4995 38.9399 32.483 39.2022C32.0928 45.6924 30.5847 51.8126 27.9868 57.706C27.8779 57.953 27.9578 58.1823 28.1692 58.2165C32.6106 58.9377 36.8357 59.4563 40.8447 59.7906C41.1395 59.8161 41.4686 59.607 41.572 59.3275Z" fill="white"/>
<g opacity="0.2">
<path opacity="0.1" d="M41.154 57.4302C43.1096 51.6404 44.0455 45.561 43.8878 39.041C40.6069 39.3977 37.1182 39.6718 33.4084 39.8588C33.0187 45.9248 31.6477 51.665 29.322 57.1981C31.9086 57.5784 34.4185 57.8917 36.8519 58.142C38.3207 57.9121 39.7542 57.6747 41.154 57.4302Z" fill="#F9AE2B"/>
</g>
<path d="M41.0545 57.1623C42.9811 51.3792 43.8923 45.3026 43.7135 38.7803C40.4519 39.1434 36.9837 39.4251 33.2952 39.622C32.9252 45.6868 31.5778 51.4228 29.2796 56.9475C31.8549 57.3219 34.3536 57.631 36.7763 57.8774C38.2368 57.6464 39.6627 57.4078 41.0545 57.1623Z" fill="#EE781D"/>
<g opacity="0.1">
<path d="M43.7135 38.7803C43.005 38.8592 42.282 38.9326 41.5535 39.0037C42.2959 40.6056 42.7381 42.3702 42.1657 43.9734C41.7127 45.2418 40.7677 45.988 39.5044 46.3904C39.1452 46.5049 38.6464 46.6329 38.4014 46.9462C38.3954 46.9538 38.3923 46.9557 38.3874 46.9616C38.3874 46.9619 38.3877 46.9619 38.3877 46.9622C38.394 47.0106 38.4892 47.1402 38.5048 47.1688C38.8115 47.7252 39.0406 48.3084 39.1139 48.9412C39.2432 50.0576 38.7339 51.0236 37.815 51.6653C36.5765 52.5305 34.9528 53.2157 33.4385 53.3761C32.5242 53.473 31.6005 53.3478 30.7038 53.1118C30.2772 54.4018 29.8066 55.6811 29.2796 56.9475C31.8549 57.3222 34.3536 57.631 36.7765 57.8774C38.2371 57.6464 39.663 57.4078 41.0548 57.1623C42.9811 51.3792 43.8926 45.3026 43.7135 38.7803Z" fill="#F9AE2B"/>
</g>
<path d="M41.0545 57.1623C40.8072 56.8672 40.5582 56.5687 40.307 56.266C39.1656 56.7997 37.9893 57.337 36.7762 57.8774C38.2368 57.6464 39.6627 57.4078 41.0545 57.1623Z" fill="#EE781D"/>
<path opacity="0.25" d="M27.9382 54.1209V56.3385C27.9382 56.3385 34.5185 58.2993 38.5438 55.2297C42.569 52.1601 42.4494 50.7808 42.4494 50.7808C42.4494 50.7808 44.4286 51.5704 44.3314 50.68C44.2342 49.7899 42.1649 49.2341 41.3285 49.418C40.492 49.6023 27.9382 54.1209 27.9382 54.1209Z" fill="#000141"/>
<path d="M42.4105 48.9583C41.9625 49.061 40.0103 49.0185 39.8125 49.2215C39.8125 49.2215 39.7187 50.2815 39.9904 50.4616C40.2866 50.5305 42.5261 50.2815 42.5261 50.2815C42.5261 50.2815 42.7916 50.5187 43.3708 50.6441C43.5251 50.6777 43.6814 50.7027 43.8304 50.7136V50.7141C43.8309 50.7141 43.8309 50.7141 43.8318 50.7147C43.8392 50.7155 43.8773 50.7225 43.933 50.7312H43.9335C44.1348 50.7626 44.567 50.8203 44.6364 50.7419C44.7239 50.6439 44.7612 50.5033 44.6768 50.4196C44.6804 50.4154 44.6836 50.4106 44.6873 50.4064C44.7398 50.4003 44.872 50.3739 44.9249 50.2712C44.9769 50.1712 44.9138 50.0903 44.8828 50.0587C44.8845 50.0534 44.8868 50.048 44.8885 50.043C44.9323 50.0402 45.028 50.027 45.0528 49.9657C45.084 49.8865 45.1102 49.7487 44.9888 49.6823C44.9894 49.6807 44.9894 49.6784 44.99 49.6768C45.0155 49.6639 45.1144 49.6062 45.1002 49.4662C45.084 49.3057 45.0079 49.2833 45.0079 49.2833C45.0079 49.2833 45.1065 49.1506 45.0852 49.0386C45.0641 48.9261 44.9618 48.7883 44.7026 48.7544L44.7003 48.7547C44.6753 48.7452 44.6486 48.7365 44.6199 48.7323C44.5028 48.7135 44.3874 48.7032 44.2777 48.699C44.2553 48.6984 44.2331 48.6981 44.2106 48.6973C43.7835 48.6895 43.4566 48.7679 43.4566 48.7679C43.4566 48.7679 44.0646 48.1681 43.8312 47.8369C43.5987 47.5059 42.8589 48.8552 42.4105 48.9583Z" fill="#FECECC"/>
<path opacity="0.2" d="M44.278 48.6993C44.4553 49.399 44.0179 50.3507 43.8306 50.7133C43.8301 50.7133 43.8301 50.7139 43.8301 50.7139H43.8306C43.8312 50.7139 43.8312 50.7139 43.8321 50.7144C43.8619 50.7167 43.896 50.7225 43.9332 50.7309H43.9338C44.135 50.7623 44.5673 50.82 44.6367 50.7416C44.7242 50.6436 44.7614 50.503 44.677 50.4193C44.6807 50.4151 44.6838 50.4103 44.6875 50.4061C44.7401 50.4 44.8723 50.3737 44.9251 50.2709C44.9772 50.1709 44.9141 50.09 44.8831 50.0584C44.8848 50.0531 44.8871 50.0477 44.8888 50.0427C44.9325 50.0399 45.0283 50.0267 45.053 49.9654C45.0843 49.8862 45.1104 49.7484 44.9891 49.6821C44.9897 49.6804 44.9897 49.6781 44.9902 49.6765C45.0158 49.6636 45.1147 49.6059 45.1005 49.4659C45.0843 49.3055 45.0081 49.2831 45.0081 49.2831C45.0081 49.2831 45.1068 49.1503 45.0854 49.0383C45.0644 48.9258 44.9621 48.788 44.7029 48.7541L44.7006 48.7544C44.6756 48.7449 44.6489 48.7362 44.6202 48.732C44.5028 48.7138 44.3874 48.7035 44.278 48.6993Z" fill="white"/>
<path d="M44.6583 50.377C44.571 50.3261 44.4809 50.2846 44.3874 50.2502C44.2939 50.216 44.197 50.1908 44.0984 50.1808C44.1959 50.1981 44.2897 50.23 44.3789 50.2704C44.4679 50.3107 44.5543 50.3588 44.6336 50.4134L44.6341 50.4137C44.6441 50.4207 44.658 50.4185 44.6651 50.4084C44.6722 50.3986 44.6697 50.3849 44.6597 50.3782C44.6591 50.3776 44.6586 50.3773 44.6583 50.377Z" fill="#FF97A6"/>
<path d="M44.9795 49.2503C44.8817 49.198 44.7811 49.156 44.6773 49.1221C44.5733 49.0882 44.4659 49.0647 44.3576 49.0577C44.4653 49.0728 44.5691 49.1039 44.6688 49.1445C44.768 49.1851 44.8649 49.2344 44.9536 49.2909L44.9544 49.2915C44.9655 49.2988 44.9809 49.2957 44.988 49.2845C44.9954 49.2733 44.9922 49.2584 44.9809 49.2514C44.9806 49.2509 44.98 49.2506 44.9795 49.2503Z" fill="#FF97A6"/>
<path d="M44.9575 49.6378C44.8601 49.5807 44.7592 49.5345 44.6543 49.4959C44.5497 49.4578 44.4414 49.4295 44.3311 49.4183C44.4403 49.4376 44.5452 49.4735 44.6449 49.5186C44.7444 49.5636 44.8413 49.6174 44.9297 49.6784L44.9305 49.679C44.9416 49.6868 44.9573 49.684 44.9649 49.6731C44.9729 49.6622 44.9701 49.6468 44.959 49.6392C44.9587 49.6387 44.9581 49.6381 44.9575 49.6378Z" fill="#FF97A6"/>
<path d="M44.8595 50.0091C44.762 49.9523 44.6614 49.9058 44.5568 49.8674C44.4525 49.8294 44.3442 49.8014 44.2343 49.7902C44.3431 49.8095 44.4477 49.845 44.5475 49.8901C44.6469 49.9352 44.7433 49.9887 44.8317 50.0497L44.8325 50.0503C44.8439 50.0581 44.8592 50.0553 44.8669 50.0444C44.8749 50.0335 44.872 50.0181 44.8609 50.0105C44.8604 50.0097 44.8598 50.0094 44.8595 50.0091Z" fill="#FF97A6"/>
<path opacity="0.2" d="M43.6823 47.8268C43.6823 47.8268 43.5098 48.0942 43.4521 48.0981C43.3944 48.102 43.3759 48.0351 43.3759 48.0351C43.3759 48.0351 43.5805 47.8072 43.6823 47.8268Z" fill="white"/>
<path d="M32.7842 32.1933C32.7842 32.1933 22.0721 40.451 24.5075 51.9809C25.0611 54.6017 31.2907 50.9678 30.7726 49.7047C27.5181 41.7712 32.7842 32.1933 32.7842 32.1933Z" fill="#F9AE2B"/>
<path opacity="0.25" d="M30.4978 48.9675C29.4863 46.0079 29.5744 42.8725 30.0735 40.1229C30.0735 40.1212 30.0735 40.1198 30.0735 40.1181C30.0783 39.7269 30.1138 39.3369 30.1519 38.9477C29.8569 39.2137 29.6227 39.5407 29.4138 39.8748C29.1705 40.2643 28.9613 40.6731 28.7442 41.0768C28.6368 41.2767 28.5245 41.4725 28.4463 41.6861C28.3662 41.9051 28.3173 42.1333 28.2957 42.3648C28.2548 42.8067 28.3142 43.2488 28.3889 43.6842C28.5308 44.5121 28.7851 45.4179 28.4071 46.2193C28.2443 46.5645 28.0044 46.8647 27.7739 47.1674C27.5073 47.5174 27.264 47.8822 27.0691 48.2762C26.6788 49.0652 26.4674 49.9559 26.6342 50.8264C27.0281 50.4336 27.4647 50.0844 27.9456 49.7991C28.7223 49.3391 29.5983 49.0607 30.4978 48.9675Z" fill="#000141"/>
<path d="M41.8719 48.6077C41.8719 48.6077 42.4338 50.2239 41.8764 50.8415C41.3194 51.4592 30.6174 55.0891 27.6196 54.4726C22.281 53.3744 24.0621 49.0963 28.8684 48.2725C33.6747 47.4491 41.8719 48.6077 41.8719 48.6077Z" fill="#F9AE2B"/>
<path d="M24.757 61.5434H51.7945C51.8684 61.5434 51.9284 61.4843 51.9284 61.4115C51.9284 61.3387 51.8684 61.2797 51.7945 61.2797H24.757C24.6831 61.2797 24.6231 61.3387 24.6231 61.4115C24.6231 61.4843 24.6831 61.5434 24.757 61.5434Z" fill="#EE781D"/>
<path d="M49.2574 25.0499V23.149H49.223C48.301 23.149 47.5507 22.4101 47.5507 21.5018V20.5374C47.5507 19.6291 48.3007 18.8902 49.223 18.8902H56.1697C57.0916 18.8902 57.8417 19.6291 57.8417 20.5374V21.5018C57.8417 22.4101 57.0914 23.149 56.1697 23.149H51.3779L49.2574 25.0499ZM49.223 19.0854C48.4104 19.0854 47.7494 19.7366 47.7494 20.5372V21.5015C47.7494 22.302 48.4104 22.9533 49.223 22.9533H49.4558V24.6075L51.3008 22.9533H56.1694C56.9819 22.9533 57.643 22.302 57.643 21.5015V20.5372C57.643 19.7366 56.9819 19.0854 56.1694 19.0854H49.223Z" fill="#EE781D"/>
<path d="M52.1628 21.0862C52.1819 21.3766 52.436 21.5967 52.7307 21.5779C53.0254 21.5594 53.2488 21.3088 53.2298 21.0188C53.2107 20.7284 52.9566 20.5083 52.6622 20.5271C52.3675 20.5456 52.1438 20.7959 52.1628 21.0862Z" fill="#EE781D"/>
<path d="M54.2276 21.0526C54.2276 21.3436 54.4669 21.5793 54.7622 21.5793C55.0575 21.5793 55.2968 21.3436 55.2968 21.0526C55.2968 20.7617 55.0575 20.526 54.7622 20.526C54.4669 20.526 54.2276 20.7617 54.2276 21.0526Z" fill="#EE781D"/>
<path d="M50.0969 21.0864C50.1157 21.3767 50.3701 21.5968 50.6645 21.578C50.9592 21.5596 51.1826 21.309 51.1639 21.0189C51.1448 20.7285 50.8907 20.5084 50.596 20.5272C50.3016 20.5457 50.0779 20.796 50.0969 21.0864Z" fill="#EE781D"/>
<path opacity="0.2" d="M15.6443 29.4885V30.6594C15.6443 30.6594 16.6078 30.9366 17.6185 30.1792V28.8896L15.6443 29.4885Z" fill="#000141"/>
<path d="M14.7542 30.0905C13.5398 30.0905 12.3254 29.6352 11.4008 28.7241C9.55202 26.9024 9.55202 23.938 11.4008 22.1166C13.2496 20.2947 16.2588 20.2947 18.1076 22.1166C18.3441 22.3496 18.3441 22.7268 18.1076 22.9597C17.8712 23.1927 17.488 23.1927 17.2519 22.9597C16.5848 22.3026 15.6975 21.9405 14.7542 21.9405C13.8109 21.9405 12.9236 22.3026 12.2566 22.9597C10.8796 24.3166 10.8796 26.5241 12.2566 27.881C12.9236 28.5382 13.8109 28.9002 14.7542 28.9002C15.6975 28.9002 16.5848 28.5382 17.2519 27.881C18.333 26.8156 18.597 25.1969 17.909 23.8529C17.7583 23.5589 17.8783 23.2002 18.1764 23.0518C18.4751 22.9018 18.8386 23.0213 18.9895 23.3153C19.9141 25.1202 19.5596 27.2938 18.1079 28.7241C17.1831 29.6349 15.9684 30.0905 14.7542 30.0905Z" fill="#EE781D"/>
<path d="M17.496 22.7189C19.0103 24.2108 19.0103 26.6297 17.496 28.1215C15.9817 29.6134 13.5264 29.6134 12.0121 28.1215C10.4979 26.6297 10.4979 24.2108 12.0121 22.7189C13.5264 21.2268 15.9814 21.2268 17.496 22.7189Z" fill="white"/>
<path opacity="0.54" d="M16.0232 24.9908V26.8878C16.0232 27.2045 15.7637 27.4604 15.4437 27.4604H14.1096C13.7899 27.4604 13.5304 27.2045 13.5304 26.8878V24.9908C13.5304 24.9704 13.5321 24.9519 13.5338 24.9332C13.544 24.8248 13.5872 24.7215 13.656 24.6369L14.3333 23.7899H15.2206L15.8979 24.6369C15.9666 24.7215 16.0096 24.8251 16.0201 24.9332C16.0215 24.9519 16.0232 24.9707 16.0232 24.9908Z" fill="#EE781D"/>
<path d="M16.0232 24.9908V26.6473H13.5304L13.5338 24.9332H16.0198C16.0215 24.9519 16.0232 24.9707 16.0232 24.9908Z" fill="#F9AE2B"/>
<path d="M15.3621 23.1619V23.6032C15.3621 23.7076 15.2769 23.7919 15.1706 23.7919H14.3793C14.2733 23.7919 14.1878 23.7076 14.1878 23.6032V23.154C14.1926 23.0527 14.2764 22.9732 14.3793 22.9732H15.1706C15.2769 22.9732 15.3621 23.0574 15.3621 23.1619Z" fill="#EE781D"/>
<path d="M14.9745 23.154H14.1881V23.193H14.9745V23.154Z" fill="white"/>
<path d="M14.8276 23.2756H14.1881V23.3145H14.8276V23.2756Z" fill="white"/>
<path d="M14.9745 23.4066H14.1881V23.4455H14.9745V23.4066Z" fill="white"/>
<path d="M14.8276 23.5281H14.1881V23.5687H14.8276V23.5281Z" fill="white"/>
<path d="M15.579 24.9332V26.6473H15.4267V24.9908C15.4267 24.9704 15.4255 24.9519 15.4244 24.9332H15.579Z" fill="white"/>
<path opacity="0.2" d="M96.1908 43.5338V44.8297C96.1908 44.8297 95.5783 45.2026 94.236 44.8297V43.2135L96.1908 43.5338Z" fill="#000141"/>
<path d="M95.1449 44.1918C93.8943 44.1918 92.6438 43.7228 91.692 42.7848C89.7883 40.9091 89.7883 37.8568 91.692 35.9814C93.5956 34.1054 96.6941 34.1054 98.5977 35.9814C98.841 36.2211 98.841 36.6097 98.5977 36.8497C98.3544 37.0896 97.96 37.0896 97.7164 36.8497C97.0295 36.1729 96.116 35.8005 95.1449 35.8005C94.1734 35.8005 93.26 36.1732 92.5733 36.8497C91.1557 38.2466 91.1557 40.5196 92.5733 41.9168C93.2603 42.5936 94.1737 42.966 95.1449 42.966C96.116 42.966 97.0297 42.5933 97.7164 41.9168C98.8294 40.8201 99.1016 39.1532 98.3928 37.7692C98.2376 37.4665 98.361 37.0972 98.6682 36.9446C98.976 36.79 99.3503 36.9132 99.5055 37.2159C100.457 39.0743 100.092 41.3123 98.5977 42.7851C97.6456 43.7226 96.3951 44.1918 95.1449 44.1918Z" fill="#EE781D"/>
<path d="M97.9679 36.6016C99.5271 38.1377 99.5271 40.6283 97.9679 42.1644C96.4088 43.7004 93.8807 43.7004 92.3215 42.1644C90.7623 40.6283 90.7623 38.1377 92.3215 36.6016C93.8807 35.0655 96.4088 35.0655 97.9679 36.6016Z" fill="url(#paint0_linear_9_112)"/>
<path d="M96.5884 37.744L95.9202 39.9414C95.813 40.2942 95.4356 40.4972 95.0769 40.3914C94.7188 40.2856 94.517 39.9118 94.6242 39.5587L95.2924 37.3615C95.3998 37.0087 95.7772 36.8057 96.1353 36.9116C96.4937 37.0171 96.6958 37.3912 96.5884 37.744Z" fill="#F9AE2B"/>
<path d="M96.5884 37.744L96.2598 38.8242L94.9638 38.4418L95.2924 37.3615C95.3998 37.0087 95.7772 36.8057 96.1353 36.9116C96.4937 37.0171 96.6958 37.3912 96.5884 37.744Z" fill="#EE781D"/>
<path opacity="0.44" d="M94.9638 38.4418L96.2123 38.9836L96.2598 38.8242L94.9638 38.4418Z" fill="#BAF1EB"/>
<path opacity="0.49" d="M96.191 37.0541C96.3047 37.1213 96.4039 37.2198 96.4644 37.3456C96.5369 37.4724 96.4937 37.6376 96.4602 37.753C96.3979 38.0064 96.3289 38.2578 96.2555 38.5078C96.1094 39.0085 95.9517 39.5055 95.7704 39.9955L95.7678 40.0025L95.7667 40.0042C95.7053 40.1008 95.6243 40.178 95.5243 40.2298C95.4245 40.2819 95.3034 40.2889 95.2059 40.2469C95.3111 40.2654 95.4154 40.2413 95.4958 40.1834C95.5748 40.1248 95.6385 40.0425 95.6828 39.9602L95.6791 39.9686C95.8016 39.461 95.9472 38.9603 96.1046 38.4633C96.1831 38.2147 96.2658 37.9672 96.355 37.7219C96.4047 37.5945 96.4405 37.49 96.4013 37.3685C96.3672 37.2509 96.2859 37.1442 96.191 37.0541Z" fill="white"/>
<path d="M95.0226 38.8262V41.12C95.0226 41.4884 94.7202 41.7894 94.3462 41.7894C93.9722 41.7894 93.6695 41.4884 93.6695 41.12V38.8262C93.6695 38.4577 93.9719 38.1567 94.3462 38.1567C94.7202 38.1567 95.0226 38.4577 95.0226 38.8262Z" fill="#F9AE2B"/>
<path d="M95.0226 38.8262V39.9538H93.6698V38.8262C93.6698 38.4577 93.9722 38.1567 94.3465 38.1567C94.7202 38.1567 95.0226 38.4577 95.0226 38.8262Z" fill="#EE781D"/>
<path opacity="0.44" d="M93.6698 39.9538L95.0235 40.1198L95.0226 39.9538H93.6698Z" fill="#BAF1EB"/>
<path opacity="0.49" d="M94.4412 38.2777C94.5699 38.3099 94.6932 38.376 94.7879 38.4796C94.8942 38.5804 94.9007 38.7509 94.9024 38.871C94.9164 39.1314 94.9237 39.3918 94.9263 39.6522C94.9323 40.173 94.926 40.6935 94.8953 41.2143L94.8948 41.2219L94.8942 41.2236C94.8635 41.3336 94.8086 41.4305 94.7276 41.5083C94.6475 41.5864 94.5335 41.6273 94.4278 41.6147C94.5341 41.6027 94.627 41.55 94.687 41.4716C94.7458 41.3932 94.7828 41.2964 94.801 41.2051L94.8001 41.2143C94.7694 40.6935 94.7629 40.1727 94.7688 39.6522C94.7717 39.3918 94.7788 39.1314 94.7927 38.871C94.8035 38.7349 94.8072 38.6249 94.7345 38.5196C94.6671 38.4163 94.5582 38.337 94.4412 38.2777Z" fill="white"/>
<path d="M96.1533 41.4016C96.039 41.58 95.8261 41.657 95.6306 41.6111C95.6076 41.6069 95.586 41.601 95.5632 41.592C95.5362 41.5825 95.5075 41.5674 95.4817 41.5517C95.4524 41.5335 95.4271 41.5128 95.4032 41.4904C95.3856 41.4742 95.3705 41.4574 95.3569 41.4389C95.2353 41.2852 95.2162 41.067 95.3293 40.8904C95.4413 40.7154 95.6505 40.6361 95.8435 40.6778C95.8665 40.682 95.8881 40.6879 95.9108 40.6969C95.9415 40.7086 95.9714 40.7221 96.0006 40.7403C96.0262 40.7562 96.0526 40.775 96.0728 40.7952C96.0907 40.8114 96.1055 40.8282 96.1191 40.8467C96.2459 41.001 96.2672 41.2233 96.1533 41.4016Z" fill="#F9AE2B"/>
<path d="M96.1194 40.8467C96.1194 40.8467 95.5859 41.6013 95.5632 41.5923C95.5362 41.5828 95.5075 41.5677 95.4816 41.552C95.4524 41.5338 95.4271 41.5131 95.4032 41.4907C95.3856 41.4744 95.8434 40.6781 95.8434 40.6781C95.8665 40.6823 95.8881 40.6882 95.9108 40.6972C95.9415 40.7089 95.9713 40.7224 96.0006 40.7406C96.0262 40.7565 96.0526 40.7753 96.0728 40.7954C96.091 40.8114 96.1058 40.8282 96.1194 40.8467Z" fill="#EE781D"/>
<path opacity="0.49" d="M96.0731 40.7954L95.5632 41.5923C95.5362 41.5828 95.5075 41.5677 95.4816 41.552C95.4524 41.5338 95.4271 41.5131 95.4032 41.4907L95.9108 40.6972C95.9415 40.7089 95.9713 40.7224 96.0006 40.7406C96.0265 40.7562 96.0529 40.775 96.0731 40.7954Z" fill="white"/>
<path d="M97.3276 40.3788C97.3702 40.6414 97.2335 40.8887 97.0093 41.0054C96.984 41.0206 96.9584 41.0326 96.9297 41.0424C96.8959 41.0558 96.8561 41.0648 96.8183 41.0707C96.7751 41.0774 96.7339 41.0785 96.6924 41.0768C96.6617 41.076 96.6338 41.0724 96.6051 41.0662C96.3604 41.0203 96.1581 40.8288 96.1163 40.5689C96.0748 40.3116 96.2058 40.0655 96.4241 39.9468C96.4494 39.9316 96.475 39.9196 96.5037 39.9098C96.5426 39.8955 96.5824 39.8838 96.6253 39.877C96.6631 39.8714 96.704 39.8678 96.7401 39.87C96.7708 39.8709 96.7987 39.8745 96.8274 39.881C97.0772 39.9232 97.2852 40.1162 97.3276 40.3788Z" fill="#F9AE2B"/>
<path d="M96.8274 39.881C96.8274 39.881 96.9584 41.0326 96.9297 41.0424C96.8959 41.0558 96.8561 41.0648 96.8183 41.0707C96.7751 41.0774 96.7339 41.0785 96.6924 41.0768C96.6617 41.076 96.4241 39.9468 96.4241 39.9468C96.4494 39.9316 96.4749 39.9196 96.5037 39.9098C96.5426 39.8955 96.5824 39.8838 96.6253 39.877C96.6631 39.8714 96.704 39.8678 96.7401 39.87C96.7708 39.8709 96.7989 39.8745 96.8274 39.881Z" fill="#EE781D"/>
<path opacity="0.49" d="M96.7404 39.87L96.93 41.0424C96.8962 41.0558 96.8564 41.0648 96.8186 41.0707C96.7754 41.0774 96.7342 41.0785 96.6927 41.0768L96.504 39.9098C96.5429 39.8955 96.5827 39.8838 96.6256 39.877C96.6631 39.8714 96.704 39.8678 96.7404 39.87Z" fill="white"/>
<path d="M98.0137 27.7978C98.1032 27.7978 98.1757 27.7264 98.1757 27.6382C98.1757 27.55 98.1032 27.4786 98.0137 27.4786C97.9242 27.4786 97.8517 27.55 97.8517 27.6382C97.8517 27.7264 97.9244 27.7978 98.0137 27.7978Z" fill="#EE781D"/>
<path d="M98.0137 29.0214C98.1032 29.0214 98.1757 28.95 98.1757 28.8618C98.1757 28.7736 98.1032 28.7022 98.0137 28.7022C97.9242 28.7022 97.8517 28.7736 97.8517 28.8618C97.8517 28.95 97.9244 29.0214 98.0137 29.0214Z" fill="#EE781D"/>
<path d="M98.0137 30.245C98.1032 30.245 98.1757 30.1736 98.1757 30.0854C98.1757 29.9972 98.1032 29.9258 98.0137 29.9258C97.9242 29.9258 97.8517 29.9972 97.8517 30.0854C97.8517 30.1736 97.9244 30.245 98.0137 30.245Z" fill="#EE781D"/>
<path d="M98.0137 31.4686C98.1032 31.4686 98.1757 31.3972 98.1757 31.309C98.1757 31.2208 98.1032 31.1494 98.0137 31.1494C97.9242 31.1494 97.8517 31.2208 97.8517 31.309C97.8517 31.3972 97.9244 31.4686 98.0137 31.4686Z" fill="#EE781D"/>
<path d="M98.7128 27.158C98.8024 27.158 98.8748 27.0866 98.8748 26.9984C98.8748 26.9102 98.8024 26.8388 98.7128 26.8388C98.6233 26.8388 98.5508 26.9102 98.5508 26.9984C98.5508 27.0866 98.6236 27.158 98.7128 27.158Z" fill="#EE781D"/>
<path d="M98.7128 28.3819C98.8024 28.3819 98.8748 28.3105 98.8748 28.2223C98.8748 28.1341 98.8024 28.0627 98.7128 28.0627C98.6233 28.0627 98.5508 28.1341 98.5508 28.2223C98.5508 28.3102 98.6236 28.3819 98.7128 28.3819Z" fill="#EE781D"/>
<path d="M98.7128 29.6055C98.8024 29.6055 98.8748 29.5341 98.8748 29.4459C98.8748 29.3577 98.8024 29.2863 98.7128 29.2863C98.6233 29.2863 98.5508 29.3577 98.5508 29.4459C98.5508 29.5341 98.6236 29.6055 98.7128 29.6055Z" fill="#EE781D"/>
<path d="M98.7128 30.8291C98.8024 30.8291 98.8748 30.7577 98.8748 30.6695C98.8748 30.5813 98.8024 30.5099 98.7128 30.5099C98.6233 30.5099 98.5508 30.5813 98.5508 30.6695C98.5508 30.7577 98.6236 30.8291 98.7128 30.8291Z" fill="#EE781D"/>
<path d="M10.7986 57.6654C10.9111 57.6654 11.0021 57.5756 11.0021 57.465C11.0021 57.3541 10.9109 57.2645 10.7986 57.2645C10.6863 57.2645 10.5951 57.3544 10.5951 57.465C10.5951 57.5758 10.686 57.6654 10.7986 57.6654Z" fill="#EE781D"/>
<path d="M10.7986 59.2029C10.9111 59.2029 11.0021 59.113 11.0021 59.0024C11.0021 58.8918 10.9109 58.802 10.7986 58.802C10.6863 58.802 10.5951 58.8918 10.5951 59.0024C10.5951 59.1133 10.686 59.2029 10.7986 59.2029Z" fill="#EE781D"/>
<path d="M10.7986 60.7404C10.9111 60.7404 11.0021 60.6505 11.0021 60.5399C11.0021 60.429 10.9109 60.3394 10.7986 60.3394C10.6863 60.3394 10.5951 60.4293 10.5951 60.5399C10.5951 60.6505 10.686 60.7404 10.7986 60.7404Z" fill="#EE781D"/>
<path d="M10.7986 62.2779C10.9111 62.2779 11.0021 62.188 11.0021 62.0774C11.0021 61.9665 10.9109 61.8769 10.7986 61.8769C10.6863 61.8769 10.5951 61.9668 10.5951 62.0774C10.5951 62.188 10.686 62.2779 10.7986 62.2779Z" fill="#EE781D"/>
<path d="M11.6771 56.8618C11.7896 56.8618 11.8806 56.772 11.8806 56.6614C11.8806 56.5508 11.7894 56.4609 11.6771 56.4609C11.5648 56.4609 11.4736 56.5508 11.4736 56.6614C11.4736 56.772 11.5645 56.8618 11.6771 56.8618Z" fill="#EE781D"/>
<path d="M11.6771 58.3993C11.7896 58.3993 11.8806 58.3094 11.8806 58.1988C11.8806 58.0882 11.7894 57.9984 11.6771 57.9984C11.5648 57.9984 11.4736 58.0882 11.4736 58.1988C11.4736 58.3094 11.5645 58.3993 11.6771 58.3993Z" fill="#EE781D"/>
<path d="M11.6771 59.9368C11.7896 59.9368 11.8806 59.8469 11.8806 59.7363C11.8806 59.6254 11.7893 59.5358 11.6771 59.5358C11.5648 59.5358 11.4736 59.6257 11.4736 59.7363C11.4733 59.8469 11.5645 59.9368 11.6771 59.9368Z" fill="#EE781D"/>
<path d="M11.6771 61.4743C11.7896 61.4743 11.8806 61.3844 11.8806 61.2738C11.8806 61.1632 11.7893 61.0733 11.6771 61.0733C11.5648 61.0733 11.4736 61.1632 11.4736 61.2738C11.4733 61.3844 11.5645 61.4743 11.6771 61.4743Z" fill="#EE781D"/>
<rect x="60.5843" y="38.6515" width="16.261" height="1.52528" rx="0.762639" fill="white"/>
<rect x="65.3188" y="17.7369" width="22.1468" height="2.78902" rx="1.39451" fill="#F9AE2B"/>
<defs>
<linearGradient id="paint0_linear_9_112" x1="91.152" y1="39.383" x2="99.1373" y2="39.383" gradientUnits="userSpaceOnUse">
<stop stop-color="#D1F4FF"/>
<stop offset="0.4183" stop-color="#FBFEFE"/>
<stop offset="1" stop-color="#D1F4FF"/>
</linearGradient>
</defs>
</svg>
