<svg width="100" height="80" viewBox="0 0 100 80" fill="none" xmlns="http://www.w3.org/2000/svg">
<path d="M91.3699 33.2586V30.4163C91.3699 30.1479 91.3178 29.8821 91.2167 29.6342C91.1156 29.3862 90.9674 29.1609 90.7805 28.9712C90.5937 28.7814 90.3718 28.6309 90.1277 28.5282C89.8836 28.4255 89.6219 28.3726 89.3577 28.3726H82.2552C81.7215 28.3726 81.2097 28.1573 80.8323 27.774C80.455 27.3908 80.243 26.8709 80.243 26.3289V23.4866C80.243 23.2182 80.295 22.9524 80.3961 22.7045C80.4973 22.4565 80.6455 22.2312 80.8323 22.0415C81.0192 21.8517 81.241 21.7012 81.4851 21.5985C81.7293 21.4958 81.9909 21.4429 82.2552 21.4429H82.4794C82.7437 21.4429 83.0054 21.39 83.2495 21.2873C83.4936 21.1846 83.7154 21.0341 83.9023 20.8443C84.0891 20.6546 84.2374 20.4293 84.3385 20.1813C84.4396 19.9334 84.4917 19.6676 84.4917 19.3992V16.5569C84.4917 16.0149 84.2797 15.495 83.9023 15.1118C83.5249 14.7285 83.0131 14.5132 82.4794 14.5132L22.186 14.5132C21.6524 14.5132 21.1405 14.7285 20.7632 15.1118C20.3858 15.495 20.1738 16.0148 20.1738 16.5568V19.3992C20.1738 19.6676 20.2259 19.9333 20.327 20.1813C20.4281 20.4292 20.5763 20.6545 20.7632 20.8443C20.95 21.0341 21.1719 21.1846 21.416 21.2873C21.6601 21.39 21.9218 21.4429 22.186 21.4429C22.7197 21.4429 23.2315 21.6582 23.6089 22.0415C23.9863 22.4247 24.1983 22.9445 24.1983 23.4865V26.3289C24.1983 26.5973 24.1462 26.863 24.0451 27.111C23.944 27.3589 23.7957 27.5842 23.6089 27.774C23.422 27.9638 23.2002 28.1143 22.9561 28.217C22.7119 28.3197 22.4503 28.3726 22.186 28.3726H14.4046C14.1403 28.3726 13.8787 28.4254 13.6345 28.5281C13.3904 28.6308 13.1686 28.7814 12.9817 28.9712C12.7949 29.1609 12.6467 29.3862 12.5455 29.6342C12.4444 29.8821 12.3924 30.1479 12.3924 30.4162V33.2586C12.3924 33.527 12.4444 33.7927 12.5455 34.0407C12.6467 34.2886 12.7949 34.5139 12.9817 34.7037C13.1686 34.8935 13.3904 35.044 13.6345 35.1467C13.8787 35.2494 14.1403 35.3023 14.4046 35.3023H17.4579C17.9916 35.3023 18.5034 35.5176 18.8808 35.9009C19.2581 36.2841 19.4701 36.8039 19.4701 37.3459V40.1883C19.4701 40.7303 19.2581 41.2501 18.8808 41.6334C18.5034 42.0167 17.9916 42.232 17.4579 42.232H17.4505C16.9168 42.232 16.405 42.4473 16.0277 42.8306C15.6503 43.2138 15.4383 43.7336 15.4383 44.2756V47.118C15.4383 47.3864 15.4904 47.6521 15.5915 47.9001C15.6926 48.148 15.8408 48.3733 16.0277 48.5631C16.2145 48.7529 16.4364 48.9034 16.6805 49.0061C16.9246 49.1088 17.1863 49.1617 17.4505 49.1617H17.8923C18.426 49.1617 18.9378 49.377 19.3151 49.7602C19.6925 50.1435 19.9045 50.6633 19.9045 51.2053V54.0477C19.9045 54.3161 19.8525 54.5818 19.7513 54.8298C19.6502 55.0777 19.502 55.303 19.3151 55.4928C19.1283 55.6826 18.9065 55.8331 18.6623 55.9358C18.4182 56.0385 18.1565 56.0914 17.8923 56.0914H10.6424C10.3781 56.0914 10.1164 56.1442 9.87231 56.2469C9.62818 56.3496 9.40635 56.5002 9.2195 56.69C9.03264 56.8797 8.88442 57.105 8.7833 57.353C8.68218 57.6009 8.63013 57.8667 8.63013 58.135V60.9774C8.63013 61.2458 8.68217 61.5115 8.7833 61.7595C8.88442 62.0074 9.03264 62.2327 9.21949 62.4225C9.40634 62.6123 9.62817 62.7628 9.8723 62.8655C10.1164 62.9682 10.3781 63.0211 10.6423 63.0211L83.5597 63.0211C84.0934 63.0211 84.6052 62.8058 84.9826 62.4225C85.36 62.0393 85.572 61.5195 85.572 60.9774V58.1351C85.572 57.8667 85.5199 57.6009 85.4188 57.353C85.3177 57.105 85.1694 56.8797 84.9826 56.69C84.7957 56.5002 84.5739 56.3497 84.3298 56.247C84.0856 56.1443 83.824 56.0914 83.5597 56.0914H81.815C81.2814 56.0914 80.7695 55.8761 80.3922 55.4928C80.0148 55.1096 79.8028 54.5898 79.8028 54.0477V51.2054C79.8028 50.6633 80.0148 50.1435 80.3922 49.7603C80.7695 49.377 81.2814 49.1617 81.815 49.1617H85.9289C86.1931 49.1617 86.4548 49.1088 86.6989 49.0061C86.943 48.9034 87.1649 48.7529 87.3517 48.5631C87.5386 48.3733 87.6868 48.1481 87.7879 47.9001C87.889 47.6522 87.9411 47.3864 87.9411 47.118V44.2757C87.9411 44.0073 87.889 43.7415 87.7879 43.4936C87.6868 43.2456 87.5386 43.0204 87.3517 42.8306C87.1649 42.6408 86.943 42.4903 86.6989 42.3876C86.4548 42.2849 86.1931 42.232 85.9289 42.232H84.6809C84.4167 42.232 84.155 42.1791 83.9109 42.0764C83.6667 41.9737 83.4449 41.8232 83.2581 41.6334C83.0712 41.4437 82.923 41.2184 82.8219 40.9704C82.7207 40.7225 82.6687 40.4567 82.6687 40.1883V37.346C82.6687 37.0776 82.7207 36.8118 82.8219 36.5639C82.923 36.3159 83.0712 36.0906 83.2581 35.9009C83.4449 35.7111 83.6667 35.5606 83.9109 35.4579C84.155 35.3552 84.4167 35.3023 84.6809 35.3023H89.3576C89.6219 35.3023 89.8835 35.2494 90.1277 35.1467C90.3718 35.044 90.5937 34.8935 90.7805 34.7037C90.9674 34.514 91.1156 34.2887 91.2167 34.0407C91.3178 33.7928 91.3699 33.527 91.3699 33.2586Z" fill="#DBE8EC"/>
<path d="M30.0593 40.8784H40.705C40.875 40.8784 41.0127 40.7384 41.0127 40.5659V35.8253C41.0127 35.6528 40.875 35.5128 40.705 35.5128H30.0593C29.8894 35.5128 29.7516 35.6528 29.7516 35.8253V40.5659C29.7516 40.7384 29.8894 40.8784 30.0593 40.8784Z" fill="#B9D4DB"/>
<path d="M35.6899 34.5457H46.3356C46.5055 34.5457 46.6432 34.4058 46.6432 34.2332V29.4927C46.6432 29.3201 46.5055 29.1802 46.3356 29.1802H35.6899C35.5199 29.1802 35.3822 29.3201 35.3822 29.4927V34.2332C35.3822 34.4058 35.5199 34.5457 35.6899 34.5457Z" fill="#B9D4DB"/>
<path d="M23.4765 34.5457H34.1222C34.2922 34.5457 34.4299 34.4058 34.4299 34.2332V29.4927C34.4299 29.3201 34.2922 29.1802 34.1222 29.1802H23.4765C23.3066 29.1802 23.1688 29.3201 23.1688 29.4927V34.2332C23.1688 34.4058 23.3066 34.5457 23.4765 34.5457Z" fill="#B9D4DB"/>
<path d="M72.4796 44.6589H61.8339C61.664 44.6589 61.5262 44.7988 61.5262 44.9714V49.7119C61.5262 49.8845 61.664 50.0244 61.8339 50.0244H72.4796C72.6495 50.0244 72.7873 49.8845 72.7873 49.7119V44.9714C72.7873 44.7988 72.6495 44.6589 72.4796 44.6589Z" fill="#B9D4DB"/>
<path d="M66.8491 50.9915H56.2034C56.0334 50.9915 55.8957 51.1314 55.8957 51.304V56.0445C55.8957 56.2171 56.0334 56.357 56.2034 56.357H66.8491C67.019 56.357 67.1568 56.2171 67.1568 56.0445V51.304C67.1568 51.1314 67.019 50.9915 66.8491 50.9915Z" fill="#B9D4DB"/>
<path d="M79.0624 50.9915H68.4167C68.2468 50.9915 68.109 51.1314 68.109 51.304V56.0445C68.109 56.2171 68.2468 56.357 68.4167 56.357H79.0624C79.2323 56.357 79.3701 56.2171 79.3701 56.0445V51.304C79.3701 51.1314 79.2323 50.9915 79.0624 50.9915Z" fill="#B9D4DB"/>
<path d="M52.1282 59.1925V61.1966C52.1282 61.9705 51.8255 62.7128 51.2866 63.2601C50.7478 63.8074 50.0169 64.1148 49.2548 64.1148H39.6016C38.8396 64.1148 38.1087 64.4223 37.5699 64.9696C37.031 65.5169 36.7283 66.2591 36.7283 67.0331C36.7283 67.8071 36.4255 68.5494 35.8867 69.0967C35.3478 69.6439 34.617 69.9514 33.8549 69.9514H26.3995C25.6375 69.9514 24.9066 69.6439 24.3677 69.0967C23.8289 68.5494 23.5262 67.8071 23.5262 67.0331V61.8608C23.5262 61.4776 23.4518 61.0981 23.3074 60.744C23.163 60.39 22.9514 60.0683 22.6846 59.7973C22.4177 59.5263 22.101 59.3113 21.7524 59.1647C21.4038 59.018 21.0301 58.9425 20.6528 58.9425H11.7071" stroke="#3086A3" stroke-width="4" stroke-miterlimit="10" stroke-linecap="round"/>
<path d="M66.556 10.0486H37.8052C37.2104 10.0486 36.7283 10.5383 36.7283 11.1423V39.4423C36.7283 40.0464 37.2104 40.5361 37.8052 40.5361H66.556C67.1507 40.5361 67.6329 40.0464 67.6329 39.4423V11.1423C67.6329 10.5383 67.1507 10.0486 66.556 10.0486Z" fill="#F9AE2B"/>
<path d="M58.9344 40.405H45.3221C45.1589 40.405 45.0023 40.4709 44.8869 40.5881C44.7715 40.7053 44.7067 40.8643 44.7067 41.03V47.205C44.7067 47.3708 44.7715 47.5297 44.8869 47.6469C45.0023 47.7641 45.1589 47.83 45.3221 47.83H47.3954C47.5586 47.83 47.7151 47.8958 47.8305 48.0131C47.9459 48.1303 48.0108 48.2892 48.0108 48.455V54.0675C48.0108 54.2333 48.0756 54.3923 48.191 54.5095C48.3064 54.6267 48.4629 54.6925 48.6261 54.6925H55.6303C55.7935 54.6925 55.95 54.6267 56.0654 54.5095C56.1808 54.3923 56.2457 54.2333 56.2457 54.0675V48.455C56.2457 48.2892 56.3105 48.1303 56.4259 48.0131C56.5413 47.8958 56.6978 47.83 56.8611 47.83H58.9344C59.0976 47.83 59.2541 47.7641 59.3695 47.6469C59.4849 47.5297 59.5498 47.3708 59.5498 47.205V41.03C59.5498 40.948 59.5338 40.8667 59.5029 40.7909C59.472 40.715 59.4267 40.6461 59.3695 40.5881C59.3124 40.5301 59.2445 40.484 59.1699 40.4526C59.0952 40.4212 59.0152 40.405 58.9344 40.405Z" fill="#409CB5"/>
<path d="M57.1959 52.4425H47.0605C46.4488 52.4425 45.9528 52.9462 45.9528 53.5675C45.9528 54.1888 46.4488 54.6925 47.0605 54.6925H57.1959C57.8077 54.6925 58.3036 54.1888 58.3036 53.5675C58.3036 52.9462 57.8077 52.4425 57.1959 52.4425Z" fill="#F9AE2B"/>
<path d="M47.9467 54.6925H56.3098V55.8597C56.3098 56.1469 56.1974 56.4223 55.9975 56.6254C55.7975 56.8284 55.5264 56.9425 55.2436 56.9425H49.0128C48.8728 56.9425 48.7342 56.9145 48.6048 56.8601C48.4755 56.8057 48.358 56.7259 48.259 56.6254C48.16 56.5248 48.0814 56.4055 48.0278 56.2741C47.9743 56.1427 47.9467 56.0019 47.9467 55.8597L47.9467 54.6925Z" fill="#3086A3"/>
<path d="M49.6169 56.9425H54.6395V58.892C54.6395 59.5684 54.3749 60.2171 53.904 60.6955C53.433 61.1738 52.7943 61.4425 52.1282 61.4425C51.4622 61.4425 50.8234 61.1738 50.3525 60.6955C49.8815 60.2171 49.6169 59.5684 49.6169 58.892V56.9425Z" fill="#409CB5"/>
<path d="M55.6667 40.405V33.7113" stroke="#3086A3" stroke-width="10" stroke-miterlimit="10"/>
<path d="M48.5898 40.405V33.7113" stroke="#3086A3" stroke-width="10" stroke-miterlimit="10"/>
<path d="M52.1806 32.7173C56.2182 32.7173 59.4913 29.3931 59.4913 25.2923C59.4913 21.1916 56.2182 17.8673 52.1806 17.8673C48.1429 17.8673 44.8698 21.1916 44.8698 25.2923C44.8698 29.3931 48.1429 32.7173 52.1806 32.7173Z" fill="#409CB5"/>
<path d="M46.5487 27.1755C46.5483 25.7841 46.933 24.4205 47.6589 23.2405C48.3848 22.0604 49.4226 21.1113 50.6541 20.5014C51.8855 19.8916 53.2609 19.6455 54.6234 19.7914C55.9859 19.9372 57.2806 20.4691 58.3597 21.3262C57.7905 20.4109 57.0311 19.6331 56.1346 19.0473C55.2382 18.4615 54.2264 18.0819 53.1703 17.9352C52.1142 17.7885 51.0392 17.8781 50.0208 18.1978C49.0024 18.5175 48.0651 19.0596 47.2748 19.786C46.4844 20.5125 45.86 21.4057 45.4454 22.403C45.0308 23.4004 44.836 24.4778 44.8746 25.5597C44.9133 26.6416 45.1844 27.7018 45.6691 28.6661C46.1538 29.6303 46.8402 30.4752 47.6803 31.1416C46.9396 29.9557 46.5471 28.5799 46.5487 27.1755Z" fill="#3086A3"/>
<path d="M48.6421 27.092C49.3456 27.092 49.916 26.5127 49.916 25.7982C49.916 25.0837 49.3456 24.5045 48.6421 24.5045C47.9386 24.5045 47.3683 25.0837 47.3683 25.7982C47.3683 26.5127 47.9386 27.092 48.6421 27.092Z" fill="#3086A3"/>
<path d="M55.719 27.092C56.4226 27.092 56.9929 26.5127 56.9929 25.7982C56.9929 25.0837 56.4226 24.5045 55.719 24.5045C55.0155 24.5045 54.4452 25.0837 54.4452 25.7982C54.4452 26.5127 55.0155 27.092 55.719 27.092Z" fill="#3086A3"/>
<path d="M71.3244 20.5112H76.2941" stroke="#B9D4DB" stroke-width="3" stroke-miterlimit="10" stroke-linecap="round"/>
<path d="M71.3244 21.966H76.2941" stroke="#B9D4DB" stroke-width="3" stroke-miterlimit="10" stroke-linecap="round"/>
<path d="M71.3244 23.4208H76.2941" stroke="#B9D4DB" stroke-width="3" stroke-miterlimit="10" stroke-linecap="round"/>
<path d="M27.6285 19.0565H32.5982" stroke="#B9D4DB" stroke-width="3" stroke-miterlimit="10" stroke-linecap="round"/>
<path d="M27.6285 20.5112H32.5982" stroke="#B9D4DB" stroke-width="3" stroke-miterlimit="10" stroke-linecap="round"/>
<path d="M27.6285 21.966H32.5982" stroke="#B9D4DB" stroke-width="3" stroke-miterlimit="10" stroke-linecap="round"/>
<path d="M33.9096 48.4746H38.8793" stroke="#B9D4DB" stroke-width="3" stroke-miterlimit="10" stroke-linecap="round"/>
<path d="M33.9096 49.9294H38.8793" stroke="#B9D4DB" stroke-width="3" stroke-miterlimit="10" stroke-linecap="round"/>
<path d="M33.9096 51.3841H38.8793" stroke="#B9D4DB" stroke-width="3" stroke-miterlimit="10" stroke-linecap="round"/>
</svg>
