<svg width="64" height="65" viewBox="0 0 64 65" fill="none" xmlns="http://www.w3.org/2000/svg">
<path d="M44.9975 20.5643H40.8384C39.4203 18.4119 37.288 16.8486 34.83 16.1595C32.372 15.4704 29.752 15.7012 27.4476 16.8099C25.1431 17.9186 23.3077 19.8314 22.2758 22.1997C21.2439 24.5679 21.0842 27.2339 21.8258 29.7117C22.5675 32.1895 24.1611 34.3142 26.3163 35.6984C28.4714 37.0827 31.0445 37.6343 33.5666 37.2529C36.0887 36.8714 38.3919 35.5822 40.0564 33.6202C41.7209 31.6583 42.6358 29.1542 42.6344 26.5644C42.633 25.3366 42.4211 24.1183 42.0081 22.9643H44.9975C45.3109 22.9643 45.6114 23.0908 45.833 23.3158C46.0546 23.5409 46.1791 23.8461 46.1791 24.1644V38.5648H20.1845V40.9648H46.1791V42.1649C46.1791 42.4831 46.0546 42.7884 45.833 43.0134C45.6114 43.2385 45.3109 43.3649 44.9975 43.3649H19.003C18.6896 43.3649 18.389 43.2385 18.1675 43.0134C17.9459 42.7884 17.8214 42.4831 17.8214 42.1649V24.1644C17.8214 23.8461 17.9459 23.5409 18.1675 23.3158C18.389 23.0908 18.6896 22.9643 19.003 22.9643H20.1845V20.5643H19.003C18.0628 20.5643 17.1612 20.9436 16.4965 21.6187C15.8317 22.2939 15.4582 23.2096 15.4582 24.1644V42.1649C15.4582 43.1197 15.8317 44.0354 16.4965 44.7105C17.1612 45.3857 18.0628 45.765 19.003 45.765H22.5477V46.965H20.1845V49.3651H43.8159V46.965H41.4528V45.765H44.9975C45.9376 45.765 46.8392 45.3857 47.504 44.7105C48.1688 44.0354 48.5422 43.1197 48.5422 42.1649V24.1644C48.5422 23.2096 48.1688 22.2939 47.504 21.6187C46.8392 20.9436 45.9376 20.5643 44.9975 20.5643ZM32.0002 34.9647C30.3644 34.9647 28.7653 34.472 27.4051 33.549C26.045 32.6259 24.9848 31.314 24.3588 29.7791C23.7328 28.2441 23.569 26.5551 23.8882 24.9256C24.2073 23.2961 24.995 21.7994 26.1518 20.6246C27.3085 19.4498 28.7822 18.6497 30.3866 18.3256C31.9911 18.0015 33.6541 18.1678 35.1654 18.8036C36.6767 19.4394 37.9685 20.5161 38.8773 21.8975C39.7861 23.2789 40.2712 24.903 40.2712 26.5644C40.2712 28.7923 39.3998 30.9289 37.8487 32.5043C36.2976 34.0796 34.1938 34.9647 32.0002 34.9647ZM39.0896 46.965H24.9108V45.765H39.0896V46.965Z" fill="#111111"/>
<path d="M33.182 25.3824H30.8188C30.5055 25.3824 30.2049 25.2563 29.9833 25.0317C29.7617 24.8071 29.6373 24.5025 29.6373 24.1849C29.6373 23.8673 29.7617 23.5627 29.9833 23.3381C30.2049 23.1135 30.5055 22.9874 30.8188 22.9874H35.5451V20.5923H33.182V19.3947H30.8188V20.5923C29.8787 20.5923 28.9771 20.9708 28.3123 21.6445C27.6476 22.3183 27.2741 23.2321 27.2741 24.1849C27.2741 25.1377 27.6476 26.0515 28.3123 26.7253C28.9771 27.399 29.8787 27.7775 30.8188 27.7775H33.182C33.4953 27.7775 33.7959 27.9037 34.0175 28.1283C34.2391 28.3529 34.3635 28.6575 34.3635 28.9751C34.3635 29.2927 34.2391 29.5973 34.0175 29.8218C33.7959 30.0464 33.4953 30.1726 33.182 30.1726H28.4557V32.5677H30.8188V33.7652H33.182V32.5677C34.1221 32.5677 35.0237 32.1892 35.6885 31.5154C36.3532 30.8417 36.7267 29.9279 36.7267 28.9751C36.7267 28.0222 36.3532 27.1084 35.6885 26.4347C35.0237 25.7609 34.1221 25.3824 33.182 25.3824Z" fill="#111111"/>
</svg>
