<svg width="175" height="42" viewBox="0 0 175 42" fill="none" xmlns="http://www.w3.org/2000/svg">
<g clip-path="url(#clip0_1_581)">
<path fill-rule="evenodd" clip-rule="evenodd" d="M173.152 15.3959V18.5994V18.7275H169.252V26.672C169.252 27.6971 169.37 28.4659 169.724 28.8503C170.079 29.3629 170.67 29.491 171.379 29.491C171.497 29.491 171.852 29.491 172.088 29.3629C172.442 29.2347 172.679 29.1066 172.915 28.9785L173.033 28.8503V32.0538C172.796 32.1819 172.442 32.31 171.852 32.4382C171.615 32.4382 171.349 32.4702 171.083 32.5022C170.818 32.5343 170.552 32.5663 170.315 32.5663C167.125 32.5663 165.589 30.7724 165.589 27.1845V18.5994H160.035V32.1819H156.254V18.5994H153.655V15.3959H156.254V13.0895C156.254 11.9362 156.49 10.9111 156.963 10.0142C157.436 8.98907 158.145 8.34839 158.971 7.83584C159.799 7.32329 160.862 7.06702 161.926 7.06702C162.871 7.06702 163.58 7.19515 164.053 7.32329H164.171V10.783L164.053 10.6549C163.462 10.3986 162.871 10.2704 162.399 10.2704C161.571 10.2704 160.98 10.5267 160.626 11.0393C160.271 11.5518 160.035 12.1925 160.035 13.2176V15.3959H165.589V11.5518H165.707L169.252 10.3986H169.37V15.3959H173.152ZM76.3751 8.98908C76.7295 8.60466 77.3204 8.34839 77.9112 8.34839C78.6202 8.34839 79.0928 8.60466 79.5655 8.98908C79.92 9.50162 80.1563 10.0142 80.1563 10.6549C80.1563 11.2955 79.92 11.9362 79.4473 12.3206C79.0928 12.705 78.502 12.9613 77.9112 12.9613C77.3204 12.9613 76.8478 12.705 76.3751 12.3206C75.9024 11.8081 75.6661 11.2955 75.6661 10.6549C75.6661 10.0142 75.9024 9.37349 76.3751 8.98908ZM61.6045 23.4686L60.5411 26.5438H60.4229C60.3048 25.9032 59.9502 24.7499 59.4776 23.4686L53.9239 8.86092H48.4884V32.1819H52.0333V17.8305V14.6271C52.0333 14.2661 51.9958 13.9457 51.963 13.6661C51.9377 13.4494 51.9151 13.2572 51.9151 13.0894H52.0333C52.1157 13.7148 52.2555 14.2156 52.3727 14.6353C52.4236 14.8175 52.4702 14.9845 52.506 15.1396L59.1231 32.1819H61.6045L68.2218 15.0115C68.2654 14.8693 68.3091 14.6746 68.3589 14.4531C68.4435 14.0759 68.5455 13.6213 68.6944 13.2176H68.8125C68.6944 14.8834 68.6944 16.421 68.6944 17.4461V32.31H72.4757V8.86092H67.2765L61.6045 23.4686ZM76.0207 15.3959H79.6839V32.1819H76.0207V15.3959ZM92.9184 15.2678C92.2092 15.1396 91.5002 15.0115 90.7912 15.0115C89.1369 15.0115 87.6008 15.3959 86.301 16.1647C85.0012 16.9336 83.9377 18.0868 83.3469 19.3682C82.6379 20.7777 82.2835 22.3153 82.2835 24.2374C82.2835 25.9032 82.6379 27.3127 83.2288 28.594C83.9377 29.8754 84.7648 30.9005 86.0647 31.5412C87.2463 32.1819 88.6643 32.5663 90.2005 32.5663C91.9729 32.5663 93.5086 32.1819 94.6907 31.4131V27.8252L94.5728 27.9534C93.9818 28.3378 93.3907 28.7222 92.8001 28.9784C92.0911 29.2347 91.5002 29.3629 91.0276 29.3629C89.4915 29.3629 88.428 28.8503 87.6008 27.9534C86.7737 26.9283 86.301 25.6469 86.301 23.9811C86.301 22.3153 86.7737 20.9058 87.6008 19.8807C88.428 18.8556 89.6096 18.3431 91.0276 18.3431C92.2092 18.3431 93.5086 18.7275 94.5728 19.6244L94.6907 19.7526V15.9085C94.2184 15.6522 93.6273 15.3959 92.9184 15.2678ZM102.725 16.0366C103.435 15.3959 104.262 15.1397 105.207 15.1397C105.798 15.1397 106.27 15.2678 106.388 15.3959H106.507V19.2401L106.388 19.1119C106.27 18.9838 105.916 18.8557 105.562 18.7275C105.384 18.7275 105.207 18.6955 105.029 18.6634C104.853 18.6314 104.675 18.5994 104.498 18.5994C103.553 18.5994 102.725 19.1119 102.135 20.0089C101.426 20.9058 101.189 22.1872 101.189 23.5967V32.1819H97.6441V15.3959H101.307V18.3431C101.662 17.318 102.135 16.5492 102.725 16.0366ZM115.251 15.0115C112.651 15.0115 110.525 15.7803 109.107 17.4461C107.57 19.1119 106.861 21.2902 106.861 23.9811C106.861 26.5438 107.57 28.7222 108.988 30.2598C110.407 31.7975 112.415 32.5663 114.779 32.5663C117.378 32.5663 119.387 31.7975 120.804 30.1317C122.341 28.4659 123.05 26.2876 123.05 23.5967C123.05 20.9058 122.341 18.8556 120.923 17.318C119.741 15.7803 117.732 15.0115 115.251 15.0115ZM115.133 29.3629C116.432 29.3629 117.497 28.8503 118.206 27.9534C119.032 26.9283 119.269 25.5188 119.387 23.9811C119.387 22.1872 118.914 20.7777 118.206 19.8807C117.497 18.9838 116.432 18.4712 115.133 18.4712C113.715 18.4712 112.77 18.8556 111.942 19.8807C111.116 20.7777 110.761 22.1872 110.761 23.9811C110.761 25.6469 111.116 27.0564 111.942 27.9534C112.651 28.8503 113.833 29.3629 115.133 29.3629ZM131.44 22.3153C130.258 21.8028 129.549 21.4184 129.194 21.0339C128.958 20.7777 128.722 20.2651 128.722 19.7526C128.722 19.24 128.84 18.8556 129.312 18.5993C129.785 18.3431 130.258 18.0868 130.966 18.0868C131.557 18.0868 132.266 18.2149 132.857 18.3431C133.334 18.4465 133.811 18.7171 134.226 18.9523C134.325 19.0084 134.421 19.0625 134.512 19.1119L134.63 19.24V15.5241H134.512C134.336 15.4763 134.16 15.4109 133.971 15.3409C133.655 15.2229 133.302 15.0919 132.857 15.0115C132.149 14.8834 131.557 14.8834 131.085 14.8834C129.312 14.8834 127.894 15.3959 126.713 16.2929C125.531 17.1898 125.059 18.4712 125.059 20.0089C125.059 20.7777 125.177 21.5465 125.413 22.059C125.65 22.5716 126.004 23.2123 126.594 23.5967C127.068 23.9811 127.894 24.4936 128.84 25.0062C129.115 25.1343 129.378 25.2482 129.619 25.3526C130.1 25.5615 130.494 25.7323 130.731 25.9032C131.085 26.1594 131.44 26.4157 131.557 26.672C131.675 26.9283 131.794 27.1845 131.794 27.5689C131.794 28.7222 130.966 29.2347 129.312 29.2347C128.722 29.2347 128.013 29.1066 127.303 28.8503C126.477 28.594 125.768 28.2096 125.177 27.6971L125.059 27.5689V31.4131H125.177C125.768 31.6693 126.359 31.9256 127.185 32.0537C127.306 32.0724 127.424 32.0911 127.54 32.1094C128.217 32.2165 128.808 32.31 129.312 32.31C131.203 32.31 132.74 31.7975 133.921 30.9005C135.103 29.8754 135.693 28.7222 135.693 27.0564C135.693 25.9032 135.457 24.8781 134.747 24.2374C134.562 24.1226 134.365 23.9951 134.156 23.859C133.426 23.3872 132.54 22.8125 131.44 22.3153ZM139.356 17.4461C140.774 15.7803 142.902 15.0115 145.501 15.0115C147.983 15.0115 149.873 15.7803 151.173 17.318C152.59 18.8556 153.3 20.9058 153.3 23.5967C153.3 26.2876 152.59 28.4659 151.055 30.1317C149.637 31.7975 147.628 32.5663 145.028 32.5663C142.665 32.5663 140.656 31.7975 139.238 30.2598C137.821 28.7222 137.112 26.5438 137.112 23.9811C137.112 21.2902 137.938 19.1119 139.356 17.4461ZM148.455 27.9534C147.746 28.8503 146.683 29.3629 145.383 29.3629C143.965 29.3629 142.902 28.8503 142.193 27.9534C141.365 27.0564 141.011 25.6469 141.011 23.9811C141.011 22.1872 141.365 20.7777 142.193 19.8807C143.019 18.8556 143.965 18.4712 145.383 18.4712C146.683 18.4712 147.746 18.9838 148.455 19.8807C149.164 20.7777 149.637 22.1872 149.637 23.9811C149.518 25.5188 149.164 26.9283 148.455 27.9534Z" fill="#990202"/>
<path d="M0.75 1.04456H18.2383V19.4963H0.75V1.04456Z" fill="#990202"/>
<path d="M20.1286 1.04456H37.6169V19.4963H20.1286V1.04456Z" fill="#990202"/>
<path d="M0.75 21.4185H18.2383V39.9984H0.75V21.4185Z" fill="#990202"/>
<path d="M20.1286 21.4185H37.6169V39.9984H20.1286V21.4185Z" fill="#990202"/>
</g>
<defs>
<clipPath id="clip0_1_581">
<rect width="174" height="41" fill="white" transform="translate(0.75 0.5)"/>
</clipPath>
</defs>
</svg>
