<svg width="158" height="50" viewBox="0 0 158 50" fill="none" xmlns="http://www.w3.org/2000/svg">
<g clip-path="url(#clip0_1_544)">
<path d="M117.101 37.7831C111.759 37.7831 108.441 34.3516 108.441 28.8205C108.441 23.08 111.504 19.5086 116.435 19.5086H116.849C117.467 19.5086 118.319 19.531 119.482 19.6922V12.7632H122.966V37.1586C122.966 37.1586 119.656 37.7831 117.101 37.7831ZM117.07 22.5507C113.695 22.5507 112.054 24.5709 112.054 28.7242C112.054 32.4534 114.035 34.7713 117.215 34.7713C117.826 34.7713 118.527 34.7266 119.481 34.6359V22.7992C118.528 22.629 117.759 22.5507 117.07 22.5507ZM69.384 37.2235L59.9738 19.0106L59.9708 37.2235H56.691V14.1667H61.2826L70.6928 32.2172L70.6888 14.1667H74.0119V37.2235H69.384ZM99.3586 37.5783C97.7736 37.5783 96.1223 37.3813 94.1555 36.9616L93.9425 36.9169V33.6957L94.2533 33.7697C95.9874 34.1804 97.4856 34.5306 98.9838 34.5306C100.194 34.5306 103.012 34.3203 103.012 32.3449C103.012 30.6884 101.065 30.2721 99.5006 29.9397L99.402 29.9173C99.1093 29.8568 98.8339 29.7953 98.6012 29.7304C96.307 29.07 93.8589 28.0773 93.8589 24.6671C93.8589 21.3408 96.232 19.4348 100.372 19.4348C102.358 19.4348 103.8 19.6698 104.96 19.8623L105.523 19.9541V23.08L105.224 23.0196C103.912 22.7521 102.374 22.4768 100.895 22.4768C99.2513 22.4768 97.301 22.8182 97.301 24.4399C97.301 25.7863 98.8971 26.1713 100.746 26.6178C103.331 27.238 106.536 28.0169 106.536 31.9296C106.536 35.519 103.923 37.5783 99.3586 37.5783ZM132.746 37.5783C129.14 37.5783 125.801 36.8732 125.801 31.7674C125.801 26.2104 130.965 26.2104 134.052 26.2104C134.359 26.2104 135.809 26.2854 136.254 26.3067C136.25 23.1898 136.215 22.4465 132.139 22.4465C130.523 22.4465 128.729 22.8002 127.145 23.1158L126.842 23.1763V20.0985L127.046 20.0504C128.882 19.6362 130.654 19.4348 132.459 19.4348C136.409 19.4348 139.755 19.8758 139.755 25.3107V37.1631L139.515 37.1933C136.779 37.5335 134.606 37.5783 132.746 37.5783ZM133.965 28.9604C130.987 28.9604 129.143 29.4461 129.143 31.8636C129.143 34.6616 131.496 34.8933 133.705 34.8933C134.527 34.8933 136.01 34.7758 136.463 34.74V29.0566C135.825 29.0264 134.165 28.9604 133.965 28.9604ZM83.8661 37.5783C80.2551 37.5783 76.9172 36.8732 76.9172 31.7674C76.9172 26.2104 82.0807 26.2104 85.1671 26.2104C85.4747 26.2104 86.9288 26.2854 87.3745 26.3067C87.3706 23.1898 87.3311 22.4465 83.2554 22.4465C81.6389 22.4465 79.8448 22.8002 78.2603 23.1158L77.9576 23.1763V20.0985L78.1665 20.0504C79.9458 19.6423 81.758 19.436 83.5758 19.4348C87.5244 19.4348 90.8711 19.8758 90.8711 25.3107V37.1631L90.6305 37.1933C87.8952 37.5335 85.7233 37.5783 83.8661 37.5783ZM85.0803 28.9604C82.1044 28.9604 80.2638 29.4461 80.2638 31.8636C80.2638 34.6616 82.6124 34.8933 84.8207 34.8933C85.6483 34.8933 87.1307 34.7758 87.5836 34.74V29.0566C86.9406 29.0264 85.2815 28.9604 85.0803 28.9604Z" fill="#BC3E00"/>
<mask id="mask0_1_544" style="mask-type:alpha" maskUnits="userSpaceOnUse" x="142" y="18" width="16" height="28">
<path d="M142.029 18.3895H157.194V45.2505H142.029V18.3895Z" fill="white"/>
</mask>
<g mask="url(#mask0_1_544)">
<path d="M153.627 45.0577V37.4941C152.268 37.7045 151.547 37.7045 150.963 37.7045C149.582 37.7045 148.049 37.3721 146.863 36.817C144.205 35.5915 142.621 32.48 142.621 28.4879C142.621 26.4957 143.059 22.8526 145.988 20.8895C147.458 19.9158 149.193 19.4995 151.802 19.4995C152.736 19.4995 153.997 19.5778 155.215 19.6561L157.195 19.7703V43.305L153.627 45.0577ZM151.542 22.5426C148.002 22.5414 146.208 24.5448 146.208 28.4879C146.208 33.5645 148.884 34.6311 151.135 34.6311C151.682 34.6311 152.298 34.6311 153.662 34.4386V22.6523C152.593 22.5739 152.101 22.5426 151.542 22.5426Z" fill="#BC3E00"/>
</g>
<mask id="mask1_1_544" style="mask-type:alpha" maskUnits="userSpaceOnUse" x="26" y="0" width="29" height="38">
<path d="M26.9855 0.5H54.2321V37.416H26.9855V0.5Z" fill="white"/>
</mask>
<g mask="url(#mask1_1_544)">
<path d="M41.1249 0.5L29.6026 35.6096C29.4601 36.0419 29.2108 36.4209 28.8831 36.7034C28.5554 36.9858 28.1627 37.1602 27.7498 37.2067V37.2235H39.93C40.8837 37.2235 41.7001 36.5508 42.0038 35.6107L53.5302 0.5H41.1249Z" fill="#BC3E00"/>
</g>
<path d="M26.7585 36.6908C27.4649 36.6908 28.0836 36.3012 28.4619 35.7115C28.5013 35.6499 28.6395 35.435 28.7374 35.1429L32.9637 22.2585L30.4913 14.7341C30.3473 14.3531 30.1141 14.0217 29.8157 13.7743C29.5174 13.5269 29.1648 13.3724 28.7946 13.327C28.4243 13.2816 28.0498 13.3468 27.7099 13.5159C27.37 13.685 27.0771 13.9518 26.8615 14.2887C26.8211 14.3503 26.6566 14.6244 26.586 14.8572L22.3597 27.7371L24.8432 35.2917C25.0043 35.707 25.2715 36.0608 25.6119 36.3093C25.9523 36.558 26.351 36.6906 26.7585 36.6908Z" fill="#BC3E00"/>
<mask id="mask2_1_544" style="mask-type:alpha" maskUnits="userSpaceOnUse" x="0" y="11" width="28" height="39">
<path d="M0.75 11.6742H27.9967V49.5001H0.75V11.6742Z" fill="white"/>
</mask>
<g mask="url(#mask2_1_544)">
<path d="M27.6631 12.7753H15.3486C14.3949 12.7753 13.5786 13.4446 13.2708 14.3892L1.74847 49.4988H14.1537L25.6771 14.3903C25.8266 13.9335 26.0953 13.5364 26.449 13.2496C26.8027 12.9628 27.2253 12.7992 27.6631 12.7797V12.7753Z" fill="#BC3E00"/>
</g>
</g>
<defs>
<clipPath id="clip0_1_544">
<rect width="157" height="49" fill="white" transform="translate(0.75 0.5)"/>
</clipPath>
</defs>
</svg>
