<svg width="62" height="62" viewBox="0 0 62 62" fill="none" xmlns="http://www.w3.org/2000/svg">
<path d="M24.9479 36.9531L22.51 40.6124L22.7694 41.8093L23.9971 41.5537L26.4338 37.8966C25.9098 37.627 25.4124 37.3112 24.9479 36.9531ZM35.2691 35.6751C35.2854 35.6424 35.2958 35.6064 35.3108 35.5715C35.3722 35.4398 35.4266 35.308 35.4707 35.1695C35.4776 35.1448 35.4811 35.12 35.4892 35.0975C35.5344 34.9462 35.5723 34.7929 35.6027 34.6381V34.6144C35.8285 33.2982 35.4348 31.8299 34.5337 30.5036L35.8193 28.5737C37.3005 28.7572 38.5814 28.3946 39.1975 27.468C40.2665 25.8657 38.9659 23.1983 36.2964 21.5083C33.6246 19.8171 30.5949 19.7461 29.5283 21.3461C28.9099 22.2739 29.0905 23.5609 29.8676 24.8062L28.5798 26.7361C26.9711 26.4738 25.4343 26.7181 24.2912 27.4567C24.2843 27.459 24.2762 27.4612 24.2715 27.4657C24.138 27.554 24.0096 27.6495 23.887 27.7517C23.8674 27.7675 23.8442 27.7821 23.828 27.7979C23.7168 27.8934 23.612 27.9957 23.5141 28.1041C23.491 28.1312 23.4585 28.1548 23.4365 28.183C23.3132 28.3188 23.2009 28.4637 23.1007 28.6165C21.4978 31.0181 22.8656 34.6527 26.15 36.7335C29.4368 38.8143 33.3999 38.5508 34.9993 36.1491C35.1001 35.9971 35.1927 35.8384 35.2691 35.6751ZM34.3253 24.4628C33.298 23.8131 32.7965 22.7885 33.2077 22.1703C33.6176 21.5544 34.7839 21.5826 35.8088 22.2323C36.8384 22.8819 37.3352 23.9088 36.9264 24.5247C36.5176 25.1406 35.3537 25.1125 34.3253 24.4628Z" fill="black"/>
</svg>
