<svg width="122" height="96" viewBox="0 0 122 96" fill="none" xmlns="http://www.w3.org/2000/svg">
<path d="M61.6747 77.6726C77.8574 77.6726 90.9761 64.4591 90.9761 48.1593C90.9761 31.8596 77.8574 18.646 61.6747 18.646C45.492 18.646 32.3733 31.8596 32.3733 48.1593C32.3733 64.4591 45.492 77.6726 61.6747 77.6726Z" fill="#DBE8EC"/>
<path d="M99.9577 42.4081V39.4405C99.9577 38.8746 99.7345 38.3319 99.3372 37.9317C98.94 37.5316 98.4011 37.3068 97.8393 37.3068H90.3621C89.8003 37.3068 89.2615 37.082 88.8642 36.6818C88.4669 36.2817 88.2437 35.739 88.2437 35.1731V32.2055C88.2437 31.6396 88.4669 31.0969 88.8642 30.6967C89.2615 30.2966 89.8003 30.0718 90.3621 30.0718H90.5982C90.8764 30.0718 91.1518 30.0166 91.4089 29.9093C91.6659 29.8021 91.8994 29.6449 92.0961 29.4468C92.2928 29.2487 92.4489 29.0135 92.5553 28.7546C92.6618 28.4957 92.7166 28.2183 92.7166 27.938V24.9704C92.7166 24.6902 92.6618 24.4128 92.5553 24.1539C92.4489 23.895 92.2928 23.6598 92.0961 23.4617C91.8994 23.2635 91.6659 23.1064 91.4089 22.9991C91.1518 22.8919 90.8764 22.8367 90.5982 22.8367H36.2722C35.7104 22.8367 35.1715 23.0615 34.7743 23.4617C34.377 23.8618 34.1538 24.4045 34.1538 24.9704V27.938C34.1538 28.2183 34.2086 28.4957 34.3151 28.7546C34.4215 29.0135 34.5776 29.2487 34.7743 29.4468C34.971 29.6449 35.2045 29.8021 35.4615 29.9093C35.7185 30.0166 35.994 30.0718 36.2722 30.0718C36.5504 30.0718 36.8259 30.1269 37.0829 30.2342C37.3399 30.3414 37.5734 30.4986 37.7701 30.6967C37.9668 30.8948 38.1229 31.1301 38.2293 31.3889C38.3358 31.6478 38.3906 31.9253 38.3906 32.2055V35.1731C38.3906 35.4533 38.3358 35.7307 38.2293 35.9896C38.1229 36.2485 37.9668 36.4837 37.7701 36.6818C37.5734 36.88 37.3399 37.0371 37.0829 37.1444C36.8259 37.2516 36.5504 37.3068 36.2722 37.3068H28.0802C27.5184 37.3068 26.9795 37.5316 26.5823 37.9317C26.185 38.3319 25.9618 38.8746 25.9618 39.4405V42.4081C25.9618 42.974 26.185 43.5167 26.5823 43.9169C26.9795 44.317 27.5184 44.5418 28.0802 44.5418H31.2946C31.5728 44.5418 31.8483 44.597 32.1053 44.7042C32.3623 44.8115 32.5958 44.9686 32.7925 45.1668C32.9892 45.3649 33.1453 45.6001 33.2517 45.859C33.3582 46.1179 33.413 46.3953 33.413 46.6755V49.6431C33.413 49.9233 33.3582 50.2008 33.2517 50.4597C33.1453 50.7186 32.9892 50.9538 32.7925 51.1519C32.5958 51.35 32.3623 51.5072 32.1053 51.6144C31.8483 51.7217 31.5728 51.7769 31.2946 51.7769H31.2868C31.0086 51.7769 30.7332 51.832 30.4762 51.9393C30.2191 52.0465 29.9856 52.2037 29.7889 52.4018C29.5922 52.5999 29.4362 52.8352 29.3297 53.094C29.2232 53.3529 29.1684 53.6304 29.1684 53.9106V56.8782C29.1684 57.4441 29.3916 57.9868 29.7889 58.3869C30.1862 58.7871 30.725 59.0119 31.2868 59.0119H31.7519C32.3137 59.0119 32.8526 59.2367 33.2498 59.6368C33.6471 60.037 33.8703 60.5797 33.8703 61.1456V64.1132C33.8703 64.3934 33.8155 64.6709 33.709 64.9297C33.6026 65.1886 33.4465 65.4238 33.2498 65.622C33.0531 65.8201 32.8196 65.9773 32.5626 66.0845C32.3056 66.1917 32.0301 66.2469 31.7519 66.2469H24.1195C23.5576 66.2469 23.0188 66.4717 22.6215 66.8718C22.2243 67.272 22.0011 67.8147 22.0011 68.3806V71.3482C22.0011 71.6284 22.0559 71.9059 22.1623 72.1647C22.2688 72.4236 22.4248 72.6588 22.6215 72.857C22.8182 73.0551 23.0518 73.2123 23.3088 73.3195C23.5658 73.4267 23.8413 73.4819 24.1195 73.4819H91.7355C92.0137 73.4819 92.2892 73.4267 92.5462 73.3195C92.8032 73.2123 93.0367 73.0551 93.2334 72.857C93.4301 72.6588 93.5862 72.4236 93.6926 72.1647C93.7991 71.9059 93.8539 71.6284 93.8539 71.3482V68.3806C93.8539 67.8147 93.6307 67.272 93.2334 66.8719C92.8361 66.4717 92.2973 66.2469 91.7355 66.2469H89.8988C89.6206 66.2469 89.3451 66.1917 89.0881 66.0845C88.8311 65.9773 88.5975 65.8201 88.4008 65.622C88.2041 65.4238 88.0481 65.1886 87.9416 64.9297C87.8352 64.6709 87.7803 64.3934 87.7804 64.1132V61.1456C87.7804 60.8654 87.8352 60.5879 87.9416 60.329C88.0481 60.0702 88.2041 59.8349 88.4008 59.6368C88.5975 59.4387 88.8311 59.2815 89.0881 59.1743C89.3451 59.0671 89.6206 59.0119 89.8988 59.0119H94.2296C94.5078 59.0119 94.7833 58.9567 95.0403 58.8494C95.2973 58.7422 95.5308 58.585 95.7276 58.3869C95.9243 58.1888 96.0803 57.9536 96.1868 57.6947C96.2932 57.4358 96.348 57.1584 96.348 56.8782V53.9106C96.348 53.6304 96.2932 53.3529 96.1868 53.094C96.0803 52.8352 95.9243 52.5999 95.7276 52.4018C95.5308 52.2037 95.2973 52.0465 95.0403 51.9393C94.7833 51.832 94.5078 51.7769 94.2296 51.7769H92.9158C92.354 51.7769 91.8152 51.5521 91.4179 51.1519C91.0206 50.7518 90.7974 50.209 90.7974 49.6431V46.6755C90.7974 46.1096 91.0206 45.5669 91.4179 45.1668C91.8152 44.7666 92.354 44.5418 92.9158 44.5418H97.8393C98.4011 44.5418 98.94 44.317 99.3372 43.9169C99.7345 43.5167 99.9577 42.974 99.9577 42.4081Z" fill="#DBE8EC"/>
<path d="M73.6661 22.0332H79.3104" stroke="#B9D4DB" stroke-width="3" stroke-miterlimit="10" stroke-linecap="round"/>
<path d="M73.6661 23.6718H79.3104" stroke="#B9D4DB" stroke-width="3" stroke-miterlimit="10" stroke-linecap="round"/>
<path d="M73.6661 25.3104H79.3104" stroke="#B9D4DB" stroke-width="3" stroke-miterlimit="10" stroke-linecap="round"/>
<path d="M77.5763 67.6396H83.2206" stroke="#B9D4DB" stroke-width="3" stroke-miterlimit="10" stroke-linecap="round"/>
<path d="M77.5763 69.2782H83.2206" stroke="#B9D4DB" stroke-width="3" stroke-miterlimit="10" stroke-linecap="round"/>
<path d="M77.5763 70.9168H83.2206" stroke="#B9D4DB" stroke-width="3" stroke-miterlimit="10" stroke-linecap="round"/>
<path d="M30.7346 40.5373H36.3789" stroke="#B9D4DB" stroke-width="3" stroke-miterlimit="10" stroke-linecap="round"/>
<path d="M30.7346 42.1759H36.3789" stroke="#B9D4DB" stroke-width="3" stroke-miterlimit="10" stroke-linecap="round"/>
<path d="M30.7346 43.8145H36.3789" stroke="#B9D4DB" stroke-width="3" stroke-miterlimit="10" stroke-linecap="round"/>
<path d="M92.6806 62.2237L70.8112 64.4397L48.9418 62.2237C48.8499 62.2144 48.7648 62.1711 48.7029 62.1021C48.641 62.0332 48.6067 61.9435 48.6067 61.8506L48.0914 60.3324L48.6067 35.4597L70.8112 37.7097L93.0156 35.4597L93.5055 60.5349L93.0156 61.8506C93.0156 61.9435 92.9813 62.0332 92.9194 62.1021C92.8575 62.1711 92.7724 62.2144 92.6806 62.2237Z" fill="#E06714"/>
<path d="M93.5055 60.5349L70.8112 62.7409L48.0914 60.3324L48.6067 34.1755C48.6067 34.1231 48.6176 34.0713 48.6387 34.0234C48.6599 33.9754 48.6907 33.9325 48.7293 33.8974C48.7679 33.8622 48.8134 33.8356 48.8628 33.8192C48.9122 33.8029 48.9645 33.7971 49.0163 33.8024L70.8112 36.0109L92.606 33.8024C92.6578 33.7971 92.7101 33.8029 92.7595 33.8192C92.8089 33.8356 92.8544 33.8622 92.893 33.8974C92.9316 33.9325 92.9625 33.9755 92.9836 34.0234C93.0047 34.0713 93.0156 34.1231 93.0156 34.1755L93.5055 60.5349Z" fill="#EE781D"/>
<path d="M70.6324 60.9859L92.4556 58.8474L91.5455 33.9098L72.2614 35.8639L70.6324 60.9859Z" fill="#E06714"/>
<path d="M70.6324 33.0859L89.7094 30.9259L90.5931 59.0299L70.6324 60.9859V33.0859Z" fill="#E06714"/>
<path d="M71.7046 32.9059L51.6447 32.5459L52.7169 59.9059L70.6324 60.9859L71.7046 32.9059Z" fill="#E06714"/>
<path d="M70.8111 31.6009L89.8881 29.4409L91.2284 57.6109L70.8111 59.5009V31.6009Z" fill="#F9AE2B"/>
<path d="M70.8111 58.5683V59.5009L91.2284 57.6109L91.1843 56.6824L70.8111 58.5683Z" fill="#E59413"/>
<path d="M70.8111 31.6009L50.7512 31.2409L51.8234 58.6009L70.8111 59.5009V31.6009Z" fill="#F9AE2B"/>
<path d="M51.8234 58.6009L70.8111 59.5009V58.5401L51.8234 57.6399V58.6009Z" fill="#E59413"/>
<path d="M53.0866 49.4725C53.1439 51.6718 53.9102 53.7925 55.2696 55.5145C56.6291 57.2365 58.5079 58.4662 60.6223 59.0179L68.9794 59.414V32.7709C68.9794 32.7709 62.6649 33.2225 56.1175 31.3372L52.6142 31.2743L53.0866 49.4725Z" fill="#E59413"/>
<path d="M81.467 58.5145C83.5297 57.0321 85.1895 55.0511 86.2936 52.7538C87.3978 50.4565 87.9109 47.9165 87.7858 45.3673L87.0203 29.7656L82.3937 30.2894C78.1643 32.4462 72.9925 33.798 72.9925 33.798V59.299L81.467 58.5145Z" fill="#E59413"/>
<path d="M70.8112 31.6009C70.8112 31.6009 81.4889 28.8109 84.7057 24.8509L85.6045 43.1702C85.7787 46.7214 84.7138 50.2221 82.5943 53.0653C80.4748 55.9086 77.4344 57.9153 74 58.7375L70.8112 59.5009V31.6009Z" fill="#F9AE2B"/>
<path d="M73.6497 31.6009L70.8112 59.5009C70.8112 59.5009 74.4257 59.2258 74.7091 59.14C77.8831 56.2074 79.6902 51.2801 79.2595 46.9028L77.5295 29.3192C76.3808 29.794 75.2549 30.2049 74.2624 30.5421C73.8984 31.1796 73.6497 31.6009 73.6497 31.6009Z" fill="#E59413"/>
<path d="M70.8112 31.6009C70.8112 31.6009 73.8939 26.3809 74.2513 24.8509L76.4209 46.9028C76.6581 49.3131 76.2651 51.744 75.281 53.954C74.2969 56.164 72.756 58.0763 70.8112 59.5009L70.8112 31.6009Z" fill="#F9AE2B"/>
<path d="M70.8112 31.6009C70.8112 31.6009 62.0098 32.2309 54.4147 28.9009L54.9183 48.3025C54.9782 50.6101 55.8183 52.828 57.2996 54.5894C58.7809 56.3508 60.8147 57.5502 63.0647 57.9893L70.8112 59.5009V31.6009Z" fill="#F9AE2B"/>
<path d="M70.8112 31.6009C70.9653 33.9259 71.0459 36.2509 71.1006 38.5759C71.135 39.7384 71.1426 40.9009 71.1628 42.0634L71.1833 45.5509L71.1638 49.0384C71.143 50.2009 71.1364 51.3634 71.1018 52.5259C71.0472 54.8509 70.9662 57.1759 70.8112 59.5009C70.6562 57.1759 70.5752 54.8509 70.5207 52.5259C70.486 51.3634 70.4794 50.2009 70.4586 49.0384L70.4391 45.5509L70.4596 42.0634C70.4798 40.9009 70.4875 39.7384 70.5218 38.5759C70.5765 36.2509 70.6571 33.9259 70.8112 31.6009Z" fill="#E59413"/>
<path d="M57.8086 35.5299C58.7475 35.6099 59.6682 35.7237 60.5884 35.8327L63.3386 36.1644C64.254 36.2729 65.1688 36.3635 66.087 36.454C67.0063 36.5421 67.9252 36.5967 68.8661 36.6774C67.9495 36.9005 67.0116 37.0232 66.0687 37.0434C65.1283 37.0641 64.1875 37.0192 63.2532 36.9092C62.3211 36.7991 61.3964 36.6326 60.484 36.4109C59.5689 36.1945 58.6739 35.8997 57.8086 35.5299Z" fill="#E59413"/>
<path d="M57.8086 39.5341C58.7475 39.6141 59.6682 39.7279 60.5884 39.8368L63.3386 40.1685C64.254 40.277 65.1688 40.3677 66.087 40.4581C67.0063 40.5463 67.9252 40.6008 68.8661 40.6816C67.9495 40.9047 67.0116 41.0274 66.0687 41.0476C65.1283 41.0682 64.1875 41.0234 63.2532 40.9133C62.3211 40.8032 61.3964 40.6368 60.484 40.415C59.5689 40.1986 58.6739 39.9039 57.8086 39.5341Z" fill="#E59413"/>
<path d="M57.8086 43.5382C58.7475 43.6182 59.6682 43.732 60.5884 43.841L63.3386 44.1727C64.254 44.2812 65.1688 44.3718 66.087 44.4623C67.0063 44.5504 67.9252 44.605 68.8661 44.6857C67.9495 44.9088 67.0116 45.0315 66.0687 45.0517C65.1283 45.0724 64.1875 45.0275 63.2532 44.9175C62.3211 44.8074 61.3964 44.6409 60.484 44.4192C59.5689 44.2028 58.6739 43.908 57.8086 43.5382Z" fill="#E59413"/>
<path d="M57.8086 47.5424C58.7475 47.6224 59.6682 47.7362 60.5884 47.8451L63.3386 48.1768C64.254 48.2854 65.1688 48.376 66.087 48.4664C67.0063 48.5546 67.9252 48.6091 68.8661 48.6899C67.9495 48.913 67.0116 49.0357 66.0687 49.0559C65.1283 49.0765 64.1875 49.0317 63.2532 48.9217C62.3211 48.8115 61.3964 48.6451 60.484 48.4233C59.5689 48.2069 58.6739 47.9122 57.8086 47.5424Z" fill="#E59413"/>
<path d="M57.8086 51.5465C58.7475 51.6265 59.6682 51.7403 60.5884 51.8493L63.3386 52.181C64.254 52.2895 65.1688 52.3801 66.087 52.4706C67.0063 52.5587 67.9252 52.6133 68.8661 52.694C67.9495 52.9171 67.0116 53.0398 66.0687 53.06C65.1283 53.0807 64.1875 53.0358 63.2532 52.9258C62.3211 52.8157 61.3964 52.6492 60.484 52.4275C59.5689 52.2111 58.6739 51.9163 57.8086 51.5465Z" fill="#E59413"/>
<path d="M84.0956 36.0657L79.7589 36.8024C79.7109 36.8118 79.6615 36.8116 79.6136 36.8017C79.5657 36.7919 79.5202 36.7727 79.4796 36.7451C79.4391 36.7176 79.4044 36.6822 79.3774 36.6412C79.3504 36.6001 79.3317 36.5541 79.3224 36.5057L79.1786 33.3504C79.1693 33.3021 79.1695 33.2524 79.1793 33.2041C79.189 33.1559 79.2081 33.11 79.2355 33.0692C79.2628 33.0284 79.2979 32.9934 79.3387 32.9662C79.3795 32.939 79.4252 32.9202 79.4731 32.9108L83.8656 32.0016C83.9136 31.9922 83.9629 31.9924 84.0108 32.0023C84.0588 32.0121 84.1043 32.0313 84.1448 32.0589C84.1853 32.0864 84.2201 32.1218 84.247 32.1628C84.274 32.2039 84.2927 32.2499 84.302 32.2983L84.3902 35.6262C84.409 35.7238 84.3885 35.825 84.3333 35.9074C84.2781 35.9898 84.1926 36.0468 84.0956 36.0657Z" fill="#EE781D"/>
<path d="M81.6337 43.8396L77.2969 44.5763C77.2489 44.5857 77.1996 44.5854 77.1516 44.5756C77.1037 44.5658 77.0582 44.5465 77.0177 44.519C76.9772 44.4914 76.9424 44.4561 76.9155 44.415C76.8885 44.374 76.8698 44.3279 76.8605 44.2796L76.7167 41.1243C76.6978 41.0267 76.7183 40.9255 76.7735 40.8431C76.8288 40.7606 76.9143 40.7037 77.0112 40.6847L81.4036 39.7755C81.4516 39.7661 81.501 39.7663 81.5489 39.7761C81.5968 39.786 81.6423 39.8052 81.6829 39.8328C81.7234 39.8603 81.7581 39.8956 81.7851 39.9367C81.8121 39.9778 81.8307 40.0238 81.8401 40.0721L81.9282 43.4C81.9376 43.4484 81.9373 43.4981 81.9276 43.5463C81.9178 43.5946 81.8987 43.6404 81.8714 43.6813C81.844 43.7221 81.8089 43.7571 81.7682 43.7842C81.7274 43.8114 81.6817 43.8302 81.6337 43.8396Z" fill="#EE781D"/>
<path d="M77.0112 40.6847C76.9143 40.7037 76.8288 40.7606 76.7736 40.8431C76.7183 40.9255 76.6978 41.0267 76.7167 41.1243L76.8605 44.2796C76.8793 44.3772 76.9359 44.4633 77.0177 44.519C77.0995 44.5746 77.2 44.5952 77.2969 44.5763L79.0021 44.2866L78.615 40.3527L77.0112 40.6847Z" fill="#CE800D"/>
<path d="M83.3311 51.6135L78.9943 52.3502C78.8974 52.3691 78.7969 52.3485 78.7151 52.2929C78.6332 52.2372 78.5767 52.1511 78.5579 52.0535L78.414 48.8982C78.4047 48.8498 78.405 48.8001 78.4147 48.7519C78.4245 48.7036 78.4436 48.6578 78.4709 48.6169C78.4983 48.5761 78.5334 48.5411 78.5741 48.514C78.6149 48.4868 78.6606 48.468 78.7086 48.4586L83.101 47.5493C83.149 47.54 83.1984 47.5402 83.2463 47.55C83.2942 47.5598 83.3397 47.5791 83.3802 47.6066C83.4208 47.6342 83.4555 47.6695 83.4825 47.7106C83.5095 47.7516 83.5281 47.7977 83.5375 47.846L83.6256 51.1739C83.6349 51.2223 83.6347 51.272 83.625 51.3202C83.6152 51.3685 83.5961 51.4143 83.5687 51.4551C83.5414 51.496 83.5063 51.531 83.4655 51.5581C83.4248 51.5853 83.3791 51.6041 83.3311 51.6135Z" fill="#EE781D"/>
<path d="M78.7086 48.4586C78.6117 48.4775 78.5262 48.5345 78.4709 48.6169C78.4157 48.6994 78.3952 48.8005 78.414 48.8982L78.5579 52.0535C78.5684 52.107 78.5904 52.1576 78.6224 52.2016C78.6544 52.2456 78.6957 52.282 78.7432 52.3082C79.1092 51.0143 79.3033 49.6772 79.3204 48.332L78.7086 48.4586Z" fill="#CE800D"/>
<path d="M58.5668 74.708C59.8992 74.708 60.9794 73.6201 60.9794 72.278C60.9794 70.936 59.8992 69.848 58.5668 69.848C57.2344 69.848 56.1543 70.936 56.1543 72.278C56.1543 73.6201 57.2344 74.708 58.5668 74.708Z" fill="#B9D4DB"/>
<path d="M55.3501 67.733C56.041 67.733 56.601 67.1689 56.601 66.473C56.601 65.7772 56.041 65.213 55.3501 65.213C54.6592 65.213 54.0991 65.7772 54.0991 66.473C54.0991 67.1689 54.6592 67.733 55.3501 67.733Z" fill="#B9D4DB"/>
<path d="M63.5331 69.533C64.5201 69.533 65.3202 68.7271 65.3202 67.733C65.3202 66.7389 64.5201 65.933 63.5331 65.933C62.5461 65.933 61.746 66.7389 61.746 67.733C61.746 68.7271 62.5461 69.533 63.5331 69.533Z" fill="#B9D4DB"/>
<path d="M32.8941 61.1804C34.4794 61.1804 35.7646 59.886 35.7646 58.2892C35.7646 56.6924 34.4794 55.398 32.8941 55.398C31.3088 55.398 30.0236 56.6924 30.0236 58.2892C30.0236 59.886 31.3088 61.1804 32.8941 61.1804Z" fill="#B9D4DB"/>
<path d="M27.409 57.7359C28.2348 57.7359 28.9042 57.0617 28.9042 56.2299C28.9042 55.3982 28.2348 54.7239 27.409 54.7239C26.5833 54.7239 25.9138 55.3982 25.9138 56.2299C25.9138 57.0617 26.5833 57.7359 27.409 57.7359Z" fill="#B9D4DB"/>
<path d="M28.7824 51.9793C29.2588 51.9793 29.645 51.5904 29.645 51.1106C29.645 50.6308 29.2588 50.2419 28.7824 50.2419C28.3061 50.2419 27.9199 50.6308 27.9199 51.1106C27.9199 51.5904 28.3061 51.9793 28.7824 51.9793Z" fill="#B9D4DB"/>
<path d="M33.5567 53.8077C34.6986 53.8077 35.6242 52.8753 35.6242 51.7252C35.6242 50.5751 34.6986 49.6428 33.5567 49.6428C32.4149 49.6428 31.4892 50.5751 31.4892 51.7252C31.4892 52.8753 32.4149 53.8077 33.5567 53.8077Z" fill="#B9D4DB"/>
<path d="M50.9616 28.6199C52.5469 28.6199 53.832 27.3254 53.832 25.7286C53.832 24.1318 52.5469 22.8374 50.9616 22.8374C49.3762 22.8374 48.0911 24.1318 48.0911 25.7286C48.0911 27.3254 49.3762 28.6199 50.9616 28.6199Z" fill="#B9D4DB"/>
<path d="M51.0781 21.3397C51.9038 21.3397 52.5732 20.6655 52.5732 19.8337C52.5732 19.002 51.9038 18.3277 51.0781 18.3277C50.2523 18.3277 49.5829 19.002 49.5829 19.8337C49.5829 20.6655 50.2523 21.3397 51.0781 21.3397Z" fill="#B9D4DB"/>
<path d="M61.0368 22.0171C61.7515 22.0171 62.3309 21.4335 62.3309 20.7137C62.3309 19.9938 61.7515 19.4102 61.0368 19.4102C60.3221 19.4102 59.7427 19.9938 59.7427 20.7137C59.7427 21.4335 60.3221 22.0171 61.0368 22.0171Z" fill="#B9D4DB"/>
<path d="M56.329 20.3157C56.8054 20.3157 57.1915 19.9268 57.1915 19.447C57.1915 18.9673 56.8054 18.5783 56.329 18.5783C55.8526 18.5783 55.4664 18.9673 55.4664 19.447C55.4664 19.9268 55.8526 20.3157 56.329 20.3157Z" fill="#B9D4DB"/>
<path d="M57.3311 26.2712C58.473 26.2712 59.3986 25.3389 59.3986 24.1888C59.3986 23.0387 58.473 22.1063 57.3311 22.1063C56.1893 22.1063 55.2636 23.0387 55.2636 24.1888C55.2636 25.3389 56.1893 26.2712 57.3311 26.2712Z" fill="#B9D4DB"/>
<path d="M47.7119 57.2177L44.7722 55.5289L43.0954 58.4899L46.0352 60.1787L47.7119 57.2177Z" fill="#DBE8EC"/>
<path d="M58.9336 56.455C60.7802 55.0524 62.1724 53.1299 62.9342 50.9304C63.696 48.731 63.7932 46.3534 63.2135 44.0983C62.6338 41.8432 61.4031 39.8119 59.6773 38.2612C57.9514 36.7105 55.8078 35.7102 53.5175 35.3866C51.2272 35.0629 48.893 35.4307 46.8102 36.4432C44.7273 37.4557 42.9894 39.0676 41.816 41.075C40.6426 43.0823 40.0866 45.3951 40.2181 47.7208C40.3497 50.0465 41.163 52.2807 42.5552 54.1408C43.4796 55.3761 44.6366 56.4159 45.9601 57.2008C47.2835 57.9857 48.7475 58.5003 50.2685 58.7152C51.7894 58.9301 53.3375 58.8411 54.8243 58.4533C56.3111 58.0655 57.7074 57.3864 58.9336 56.455ZM44.3756 52.7601C43.2542 51.2625 42.5989 49.4636 42.4925 47.5908C42.3862 45.7181 42.8337 43.8556 43.7783 42.239C44.7229 40.6224 46.1222 39.3243 47.7994 38.5087C49.4765 37.6932 51.356 37.397 53.2003 37.6574C55.0446 37.9179 56.7708 38.7234 58.1606 39.972C59.5504 41.2206 60.5414 42.8564 61.0082 44.6723C61.475 46.4882 61.3966 48.4028 60.7831 50.1739C60.1695 51.945 59.0483 53.493 57.5612 54.6223C55.5673 56.136 53.0582 56.7901 50.5856 56.4409C48.113 56.0917 45.8793 54.7678 44.3756 52.7601Z" fill="#3086A3"/>
<path opacity="0.76" d="M51.8931 56.5341C57.0932 56.5341 61.3087 52.2881 61.3087 47.0504C61.3087 41.8126 57.0932 37.5666 51.8931 37.5666C46.693 37.5666 42.4774 41.8126 42.4774 47.0504C42.4774 52.2881 46.693 56.5341 51.8931 56.5341Z" fill="white"/>
<path d="M58.6154 47.4666C58.5258 48.9357 57.9641 50.3356 57.0153 51.4551C56.0664 52.5745 54.7819 53.3527 53.3554 53.6723C51.9289 53.9919 50.4379 53.8355 49.1074 53.2267C47.777 52.6179 46.6791 51.5898 45.9797 50.2974" stroke="#DBE8EC" stroke-width="10" stroke-miterlimit="10"/>
<path d="M46.9237 60.6797L42.215 57.9745C42.0364 57.8719 41.809 57.9346 41.7071 58.1145L34.82 70.2769C34.7181 70.4568 34.7803 70.6858 34.9589 70.7884L39.6676 73.4935C39.8462 73.5961 40.0736 73.5335 40.1755 73.3536L47.0627 61.1912C47.1646 61.0113 47.1023 60.7823 46.9237 60.6797Z" fill="#3086A3"/>
<path d="M40.1755 73.3536L47.0627 61.1912C47.0869 61.1484 47.1025 61.1013 47.1087 61.0524C47.1148 61.0035 47.1113 60.9539 47.0984 60.9064C47.0855 60.8589 47.0634 60.8145 47.0334 60.7756C47.0035 60.7367 46.9662 60.7041 46.9237 60.6797L45.7526 60.0069C45.8384 60.0562 45.9012 60.1378 45.9272 60.2337C45.9533 60.3296 45.9404 60.432 45.8915 60.5184L39.0043 72.6807C38.9801 72.7235 38.9478 72.7611 38.9091 72.7913C38.8705 72.8214 38.8264 72.8437 38.7792 72.8567C38.732 72.8697 38.6828 72.8732 38.6343 72.867C38.5858 72.8608 38.539 72.8451 38.4965 72.8207L39.6676 73.4935C39.7101 73.5179 39.7569 73.5336 39.8054 73.5398C39.8539 73.546 39.9032 73.5425 39.9503 73.5295C39.9975 73.5165 40.0416 73.4943 40.0803 73.4641C40.1189 73.4339 40.1513 73.3963 40.1755 73.3536Z" fill="#25788E"/>
<path d="M35.9524 70.9274L42.8396 58.7651C42.8638 58.7223 42.8962 58.6848 42.9348 58.6546C42.9734 58.6244 43.0176 58.6022 43.0647 58.5892C43.1119 58.5762 43.1611 58.5727 43.2097 58.5788C43.2582 58.585 43.305 58.6008 43.3475 58.6252L44.6482 59.3724L42.215 57.9746C42.1292 57.9253 42.0275 57.9123 41.9323 57.9386C41.8371 57.9648 41.7561 58.0281 41.7071 58.1145L34.82 70.2769C34.771 70.3633 34.7582 70.4657 34.7843 70.5616C34.8103 70.6575 34.8731 70.7391 34.9589 70.7884L36.0914 71.439C36.0489 71.4146 36.0116 71.382 35.9816 71.3431C35.9517 71.3042 35.9296 71.2597 35.9167 71.2122C35.9038 71.1647 35.9003 71.1151 35.9064 71.0662C35.9126 71.0174 35.9282 70.9702 35.9524 70.9274Z" fill="#409CB5"/>
<path d="M37.3922 72.1862L39.6675 73.4934H39.6677L37.3922 72.1862Z" fill="#409CB5"/>
<path d="M34.9352 69.6223L40.6762 72.9205C40.7619 72.9697 40.8248 73.0513 40.8508 73.1472C40.8769 73.2432 40.864 73.3456 40.8151 73.432L40.2671 74.3997C39.9448 74.9688 39.4113 75.3857 38.7839 75.5586C38.1565 75.7315 37.4866 75.6463 36.9216 75.3217L34.7946 74.0997C34.5148 73.939 34.2692 73.7243 34.0718 73.468C33.8744 73.2117 33.7291 72.9187 33.6441 72.6058C33.5591 72.2929 33.5361 71.9662 33.5765 71.6444C33.6168 71.3225 33.7198 71.0118 33.8793 70.73L34.4273 69.7623C34.4762 69.6759 34.5572 69.6126 34.6525 69.5864C34.7477 69.5601 34.8494 69.5731 34.9352 69.6223Z" fill="#DBE8EC"/>
<path d="M34.9926 71.378L35.5406 70.4103C35.5895 70.3239 35.6705 70.2606 35.7658 70.2344C35.861 70.2081 35.9627 70.221 36.0485 70.2703L40.7351 72.9627C40.7169 72.9468 40.6971 72.9326 40.6762 72.9204L34.9352 69.6223C34.8494 69.573 34.7477 69.5601 34.6525 69.5864C34.5572 69.6126 34.4762 69.6759 34.4273 69.7623L33.8793 70.73C33.557 71.2991 33.4724 71.9739 33.6441 72.6058C33.8157 73.2377 34.2296 73.7751 34.7946 74.0997L35.7866 74.6696C35.2624 74.3265 34.8882 73.7945 34.7406 73.1826C34.593 72.5707 34.6831 71.9252 34.9926 71.378Z" fill="#E8EEEF"/>
<path d="M40.2671 74.3997L40.8151 73.432C40.864 73.3456 40.8769 73.2432 40.8508 73.1472C40.8248 73.0513 40.7619 72.9697 40.6762 72.9205L39.5 72.2448C39.5855 72.2942 39.648 72.3757 39.6738 72.4715C39.6997 72.5672 39.6868 72.6694 39.638 72.7556L39.09 73.7234C38.7677 74.2925 38.2342 74.7093 37.6068 74.8822C36.9794 75.0551 36.3095 74.9699 35.7445 74.6453L34.7926 74.0984L34.7946 74.0997L36.9216 75.3216C37.2014 75.4824 37.5099 75.586 37.8294 75.6267C38.1489 75.6673 38.4733 75.6442 38.7839 75.5586C39.0946 75.473 39.3855 75.3266 39.6399 75.1277C39.8944 74.9289 40.1075 74.6815 40.2671 74.3997Z" fill="#BAD5DB"/>
</svg>
